<svg width="24" height="21" viewBox="0 0 24 21" fill="none" xmlns="http://www.w3.org/2000/svg">
<path d="M8 15.5L12 19.5L16 15.5" stroke="#333333" stroke-width="2" stroke-linecap="round" stroke-linejoin="round"/>
<path d="M12 10.5V19.5" stroke="#333333" stroke-width="2" stroke-linecap="round" stroke-linejoin="round"/>
<path d="M20.88 16.5899C21.7494 15.9786 22.4014 15.1061 22.7413 14.0991C23.0812 13.0921 23.0914 12.003 22.7704 10.9898C22.4494 9.97657 21.8139 9.09202 20.9561 8.46449C20.0983 7.83697 19.0628 7.4991 18 7.49993H16.74C16.4392 6.32781 15.8765 5.23918 15.0941 4.31601C14.3117 3.39285 13.3301 2.65919 12.2232 2.17029C11.1163 1.68138 9.91284 1.44996 8.70352 1.49345C7.4942 1.53694 6.31051 1.8542 5.24155 2.42136C4.17259 2.98851 3.24622 3.79078 2.53218 4.76776C1.81814 5.74474 1.33505 6.87098 1.11925 8.06168C0.903464 9.25239 0.960604 10.4765 1.28637 11.642C1.61214 12.8074 2.19805 13.8837 2.99999 14.7899" stroke="#333333" stroke-width="2" stroke-linecap="round" stroke-linejoin="round"/>
</svg>
