<svg width="48" height="48" viewBox="0 0 48 48" fill="none" xmlns="http://www.w3.org/2000/svg">
<g clip-path="url(#clip0_122_2951)">
<path d="M27.4803 12.5502C27.4803 10.6273 25.9191 9.06311 24 9.06311C22.0809 9.06311 20.5197 10.6274 20.5197 12.5502C20.5197 12.8186 20.5494 13.0815 20.6084 13.3373H27.3917C27.4507 13.0815 27.4803 12.8185 27.4803 12.5502Z" fill="#D07233"/>
<path d="M34.5511 10.8479C34.3153 10.7912 34.0988 10.6729 33.9237 10.5052C33.7485 10.3375 33.6209 10.1264 33.5539 9.89333C33.3468 9.17449 33.0563 8.48231 32.6885 7.83087C32.5681 7.61738 32.5071 7.37551 32.5119 7.13044C32.5167 6.88538 32.587 6.64607 32.7157 6.43744L33.8928 4.5281L32.1753 2.83682L30.2099 4.01169C30.0043 4.1346 29.7701 4.20151 29.5306 4.20576C29.291 4.21 29.0546 4.15144 28.8447 4.0359C28.1793 3.66944 27.4742 3.38018 26.7432 3.17374C26.5103 3.10808 26.2989 2.98194 26.1304 2.80815C25.962 2.63435 25.8426 2.41908 25.7843 2.18421L25.2419 0H22.7882L22.2482 2.17508C22.1897 2.41063 22.0697 2.62644 21.9006 2.80048C21.7314 2.97452 21.5191 3.10056 21.2853 3.16574C20.5536 3.36995 19.8477 3.65715 19.1812 4.02174C18.9716 4.13637 18.7357 4.19425 18.4969 4.18967C18.258 4.18508 18.0245 4.11818 17.8195 3.99559L15.8462 2.8159L14.1286 4.50718L15.3009 6.40851C15.4299 6.61775 15.5003 6.85781 15.5048 7.10359C15.5092 7.34936 15.4475 7.5918 15.3261 7.80554C14.9563 8.4559 14.6638 9.14722 14.4545 9.86544C14.387 10.0976 14.2593 10.3077 14.0844 10.4747C13.9095 10.6416 13.6936 10.7593 13.4586 10.8159L11.2335 11.3516V13.3372H17.8274C17.7942 13.0762 17.7773 12.8133 17.7769 12.5502C17.7769 9.11497 20.5686 6.32021 24.0001 6.32021C27.4316 6.32021 30.2233 9.11497 30.2233 12.5502C30.2233 12.8157 30.2054 13.0779 30.1728 13.3372H36.7667V11.3812L34.5511 10.8479ZM0 41.685V47.0544C0 47.5757 0.424205 48 0.945641 48H47.0544C47.5758 48 48 47.5758 48 47.0544V41.685H33.0307L31.9876 44.2732C31.8854 44.5269 31.7096 44.7442 31.483 44.8972C31.2563 45.0503 30.9891 45.132 30.7156 45.132H17.2598C16.9863 45.132 16.7191 45.0503 16.4924 44.8972C16.2657 44.7442 16.09 44.5269 15.9878 44.2732L14.9446 41.685H0Z" fill="#D07233"/>
<path d="M43.4221 16.08H4.57795C4.07385 16.08 3.6637 16.4901 3.6637 16.9942V38.9421H15.8707C16.1442 38.9421 16.4114 39.0238 16.6381 39.1769C16.8647 39.3299 17.0405 39.5472 17.1427 39.8009L18.1859 42.3891H29.7898L30.833 39.8009C30.9353 39.5472 31.111 39.3299 31.3377 39.1769C31.5643 39.0239 31.8315 38.9421 32.105 38.9421H44.3364V16.9943C44.3364 16.4901 43.9263 16.08 43.4221 16.08ZM19.1717 25.9151L14.1866 28.4139L19.1717 30.9127V33.5428L10.8354 29.2492V27.5784L19.1717 23.2848V25.9151ZM23.1452 33.6854H20.627L25.3328 21.4577H27.8678L23.1452 33.6854ZM37.1646 29.2651L28.8283 33.5407V30.9112L33.8485 28.4138L28.8283 25.9164V23.2871L37.1646 27.5627V29.2651Z" fill="#D07233"/>
</g>
<defs>
<clipPath id="clip0_122_2951">
<rect width="48" height="48" fill="white"/>
</clipPath>
</defs>
</svg>
