<svg width="48" height="48" viewBox="0 0 48 48" fill="none" xmlns="http://www.w3.org/2000/svg">
<g clip-path="url(#clip0_122_2965)">
<path d="M4.41126 28.3125H1.41126C0.633974 28.3125 0.00500488 28.9415 0.00500488 29.7188V46.5938C0.00500488 47.371 0.633974 48 1.41126 48H4.41126C6.73757 48 8.63001 46.1076 8.63001 43.7812V32.5312C8.63001 30.2049 6.73766 28.3125 4.41126 28.3125ZM47.5831 31.0405C47.4144 30.7594 47.1895 30.5343 46.9364 30.3374C45.9009 29.4316 44.1563 29.5172 43.1396 30.6188L36.7551 37.9875L36.5582 38.2124C35.7708 39.0843 34.6457 39.5625 33.4646 39.5625H22.5521C21.7645 39.5625 21.1458 38.9437 21.1458 38.1562C21.1458 37.3687 21.7645 36.75 22.5521 36.75H31.1302C32.6771 36.75 33.9427 35.4844 33.9427 33.9375V33.9094C33.9146 32.3625 32.6771 31.125 31.1302 31.125H26.0396C25.1962 31.125 24.2924 30.8153 23.5646 30.1968C20.1334 27.1874 15.1271 26.9905 11.4427 29.55V46.8468C14.2271 47.6063 17.0958 48 19.9926 48H32.5364C35.6301 48 38.5552 46.5374 40.4114 44.0624L47.1615 35.0624C48.1462 33.7697 48.2204 31.9969 47.5831 31.0405ZM37.7122 2.71828C36.1525 0.965344 33.9903 0 31.6241 0C28.9829 0 26.6935 1.24884 25.0033 3.61144C24.8795 3.78458 24.7606 3.96119 24.6468 4.14103C24.5331 3.96115 24.4143 3.78455 24.2905 3.61144C22.6003 1.24884 20.3108 0 17.6697 0C15.3034 0 13.1413 0.965344 11.5816 2.71819C10.1015 4.38169 9.28626 6.60553 9.28626 8.98013C9.28626 11.5606 10.2876 13.9417 12.4373 16.4739C14.3131 18.6832 17.0037 20.9541 20.119 23.5836C21.2702 24.5553 22.4608 25.5601 23.7258 26.6565C23.9813 26.8783 24.3084 27.0004 24.6468 27.0001C24.9852 27.0003 25.3123 26.8783 25.5678 26.6565C26.8327 25.5603 28.023 24.5556 29.1743 23.584C31.1751 21.8952 32.903 20.4368 34.4024 19.0222C37.3137 16.2755 40.0075 13.1578 40.0075 8.98022C40.0075 6.60563 39.1923 4.38178 37.7122 2.71828Z" fill="#D07233"/>
</g>
<defs>
<clipPath id="clip0_122_2965">
<rect width="48" height="48" fill="white"/>
</clipPath>
</defs>
</svg>
