<svg width="48" height="40" viewBox="0 0 48 40" fill="none" xmlns="http://www.w3.org/2000/svg">
<path d="M27.1127 30.4433H20.8878V39.4806H27.1127V30.4433ZM18.0754 30.4433H11.8505V39.4806H18.0754V30.4433ZM0.884243 9.65718L2.39015 9.05483L2.39053 9.05465L23.4778 0.619661C23.8131 0.485504 24.1871 0.485504 24.5224 0.619661L45.6096 9.05465C45.6098 9.05467 45.6099 9.05474 45.61 9.05483L47.1159 9.65718C47.8368 9.94565 48.1875 10.764 47.899 11.4851C47.6661 12.0676 47.0875 12.4079 46.4934 12.3654V12.4374L24.5223 3.64892C24.187 3.51486 23.813 3.51486 23.4777 3.64892L1.50656 12.4374V12.3648C1.47337 12.3671 1.44009 12.3695 1.40709 12.3695C0.848991 12.3695 0.320896 12.035 0.10096 11.4851C-0.187511 10.7641 0.163212 9.94565 0.884243 9.65718Z" fill="#D07233"/>
<path d="M1.92879 15.2975L23.9999 6.46899L46.0711 15.2975C46.206 15.3515 46.3485 15.3842 46.4934 15.3945V38.0746C46.4934 38.8513 45.8638 39.4809 45.0872 39.4809H38.9623V29.0375C38.9623 28.2608 38.3326 27.6312 37.556 27.6312H10.4439C9.6673 27.6312 9.03768 28.2608 9.03768 29.0375V39.4809H2.91269C2.13607 39.4809 1.50644 38.8513 1.50644 38.0746V15.3938C1.65137 15.3838 1.79385 15.3514 1.92879 15.2975ZM13.4563 16.8876H34.5435C35.3202 16.8876 35.9498 16.258 35.9498 15.4814C35.9498 14.7048 35.3202 14.0751 34.5435 14.0751H13.4563C12.6797 14.0751 12.0501 14.7048 12.0501 15.4814C12.0501 16.258 12.6797 16.8876 13.4563 16.8876Z" fill="#D07233"/>
<path d="M36.1501 30.4434H29.9252V39.4807H36.1501V30.4434Z" fill="#D07233"/>
</svg>
