<svg width="64" height="71" viewBox="0 0 64 71" fill="none" xmlns="http://www.w3.org/2000/svg">
<path fill-rule="evenodd" clip-rule="evenodd" d="M59.3745 28.9691L11.4356 1.29302C10.3271 0.653681 9.06997 0.317208 7.79033 0.317383C6.51069 0.317558 5.25361 0.654373 4.1453 1.29401C3.037 1.93365 2.11646 2.8536 1.47612 3.9615C0.835786 5.06941 0.498175 6.32627 0.49719 7.60591V62.9637C0.489801 64.245 0.823434 65.5052 1.46386 66.615C2.10428 67.7247 3.02843 68.6441 4.14149 69.2788C5.24816 69.9254 6.50684 70.2662 7.78856 70.2662C9.07028 70.2662 10.329 69.9254 11.4356 69.2788L59.3745 41.5999C60.4825 40.9595 61.4025 40.0388 62.0421 38.9303C62.6817 37.8219 63.0185 36.5646 63.0185 35.2848C63.0185 34.005 62.6817 32.7478 62.0421 31.6393C61.4025 30.5308 60.4825 29.6101 59.3745 28.9697V28.9691Z" fill="white"/>
</svg>
