<svg width="32" height="32" viewBox="0 0 32 32" fill="none" xmlns="http://www.w3.org/2000/svg">
<path d="M22.6663 28V25.3333C22.6663 23.9188 22.1044 22.5623 21.1042 21.5621C20.1041 20.5619 18.7475 20 17.333 20H6.66634C5.25185 20 3.8953 20.5619 2.89511 21.5621C1.89491 22.5623 1.33301 23.9188 1.33301 25.3333V28" stroke="#C4613A" stroke-width="2" stroke-linecap="round" stroke-linejoin="round"/>
<path d="M12.0003 14.6667C14.9458 14.6667 17.3337 12.2789 17.3337 9.33333C17.3337 6.38781 14.9458 4 12.0003 4C9.05481 4 6.66699 6.38781 6.66699 9.33333C6.66699 12.2789 9.05481 14.6667 12.0003 14.6667Z" stroke="#C4613A" stroke-width="2" stroke-linecap="round" stroke-linejoin="round"/>
<path d="M30.667 28.0005V25.3338C30.6661 24.1521 30.2728 23.0042 29.5488 22.0702C28.8248 21.1363 27.8112 20.4693 26.667 20.1738" stroke="#C4613A" stroke-width="2" stroke-linecap="round" stroke-linejoin="round"/>
<path d="M21.333 4.17383C22.4802 4.46756 23.4971 5.13476 24.2232 6.07024C24.9493 7.00572 25.3435 8.15627 25.3435 9.34049C25.3435 10.5247 24.9493 11.6753 24.2232 12.6107C23.4971 13.5462 22.4802 14.2134 21.333 14.5072" stroke="#C4613A" stroke-width="2" stroke-linecap="round" stroke-linejoin="round"/>
</svg>
