<svg width="167" height="56" viewBox="0 0 167 56" fill="none" xmlns="http://www.w3.org/2000/svg">
<g clip-path="url(#clip0_122_2354)">
<mask id="mask0_122_2354" style="mask-type:luminance" maskUnits="userSpaceOnUse" x="0" y="0" width="167" height="56">
<path d="M167 0H0V56H167V0Z" fill="white"/>
</mask>
<g mask="url(#mask0_122_2354)">
<path d="M49.4236 16.7561L53.1047 21.2863C53.1588 21.3955 53.3212 21.3955 53.4295 21.2863L57.0564 16.7561C57.1105 16.7015 57.1646 16.7015 57.2188 16.7015H60.3584C60.4667 16.7015 60.575 16.8107 60.575 16.9199V28.3819C60.575 28.491 60.4667 28.6002 60.3584 28.6002H56.8398C56.7316 28.6002 56.6233 28.491 56.6233 28.3819V22.7055C56.6233 22.4871 56.4068 22.4325 56.2444 22.5963L53.5378 26.3078H52.8881L50.1815 22.6508C50.0732 22.4871 49.8025 22.5963 49.8025 22.76V28.3819C49.8025 28.491 49.6942 28.6002 49.586 28.6002H46.0674C45.9591 28.6002 45.8508 28.491 45.8508 28.3819V16.8653C45.8508 16.7561 45.9591 16.647 46.0674 16.647H49.207C49.3694 16.647 49.4236 16.7015 49.4236 16.7561Z" fill="#373636"/>
<path d="M72.0511 22.1596L67.2874 28.491C67.2332 28.5456 67.1791 28.5456 67.125 28.5456H63.5522C63.444 28.5456 63.3357 28.4364 63.3357 28.3273V16.8653C63.3357 16.7561 63.444 16.647 63.5522 16.647H67.0708C67.1791 16.647 67.2874 16.7561 67.2874 16.8653V22.9238C67.2874 23.0875 67.5039 23.1967 67.6663 23.0329L72.43 16.7561C72.4842 16.7015 72.5383 16.7015 72.5924 16.7015H76.1652C76.2734 16.7015 76.3817 16.8107 76.3817 16.9199V28.3819C76.3817 28.491 76.2734 28.6002 76.1652 28.6002H72.6465C72.5383 28.6002 72.43 28.491 72.43 28.3819V22.2688C72.43 22.1051 72.1593 21.9959 72.0511 22.1596Z" fill="#373636"/>
<path d="M92.1888 22.5964C92.1888 23.4151 92.0799 24.2338 91.8097 24.9979C91.5386 25.7621 91.2143 26.417 90.727 27.0174C90.2397 27.6178 89.6443 28.0545 88.9408 28.4365C88.2365 28.764 87.479 28.9823 86.5584 28.9823C85.8549 28.9823 85.1514 28.8186 84.502 28.5457C83.8517 28.2728 83.3645 27.8362 82.9861 27.345H82.932V32.803C82.932 32.9122 82.8231 33.0214 82.715 33.0214H79.1966C79.0884 33.0214 78.9801 32.9122 78.9801 32.803V16.9745C78.9801 16.8653 79.0884 16.7562 79.1966 16.7562H82.4988C82.6069 16.7562 82.715 16.8653 82.715 16.9745V18.2299H82.7691C83.1482 17.7387 83.6355 17.3566 84.285 16.9745C84.9344 16.5925 85.6928 16.4287 86.5584 16.4287C87.4249 16.4287 88.1825 16.5925 88.8868 16.92C89.5903 17.2474 90.1856 17.6841 90.6729 18.2845C91.1602 18.8849 91.5386 19.5398 91.8097 20.304C92.0799 20.959 92.1888 21.7231 92.1888 22.5964ZM88.4535 22.5964C88.4535 22.2143 88.3995 21.8322 88.2906 21.4502C88.1825 21.0682 88.0203 20.7406 87.7492 20.4678C87.533 20.1948 87.2079 19.9765 86.8836 19.8128C86.5584 19.649 86.126 19.5398 85.6928 19.5398C85.2595 19.5398 84.8804 19.649 84.502 19.8128C84.1228 19.9765 83.8517 20.1948 83.6355 20.5223C83.3645 20.7952 83.2023 21.1227 83.0942 21.5048C82.9861 21.8868 82.878 22.2689 82.878 22.651C82.878 23.033 82.932 23.4151 83.0942 23.7972C83.2023 24.1792 83.4193 24.5067 83.6355 24.7796C83.9058 25.0526 84.1769 25.2709 84.502 25.4892C84.8263 25.6529 85.2595 25.7621 85.6928 25.7621C86.126 25.7621 86.5584 25.6529 86.8836 25.4892C87.2079 25.3254 87.533 25.1071 87.7492 24.7796C87.9662 24.5067 88.1284 24.1792 88.2906 23.7972C88.3995 23.3059 88.4535 22.9785 88.4535 22.5964Z" fill="#373636"/>
<path d="M102.203 16.7561L105.884 21.2863C105.939 21.3955 106.101 21.3955 106.21 21.2863L109.836 16.7561C109.89 16.7015 109.945 16.7015 109.999 16.7015H113.138C113.247 16.7015 113.355 16.8107 113.355 16.9199V28.3819C113.355 28.491 113.247 28.6002 113.138 28.6002H109.62C109.512 28.6002 109.404 28.491 109.404 28.3819V22.7055C109.404 22.4871 109.187 22.4325 109.024 22.5963L106.318 26.3078H105.668L102.962 22.6508C102.853 22.4871 102.582 22.5963 102.582 22.76V28.3819C102.582 28.491 102.474 28.6002 102.366 28.6002H98.8471C98.739 28.6002 98.6309 28.491 98.6309 28.3819V16.8653C98.6309 16.7561 98.739 16.647 98.8471 16.647H101.987C102.095 16.647 102.149 16.7015 102.203 16.7561Z" fill="#373636"/>
<path d="M116.061 18.4485C116.007 18.3939 116.007 18.2301 116.061 18.1755C116.71 17.5752 117.469 17.1385 118.334 16.811C119.255 16.4835 120.176 16.3198 121.15 16.3198C122.124 16.3198 122.99 16.4289 123.694 16.7018C124.398 16.9748 124.939 17.3569 125.372 17.8481C125.805 18.3393 126.13 18.9942 126.292 19.8129C126.509 20.5771 126.563 21.5596 126.563 22.5966V28.3821C126.563 28.4913 126.455 28.6005 126.346 28.6005H123.207C123.098 28.6005 122.99 28.4913 122.99 28.3821V27.2905H122.936C122.611 27.7817 122.178 28.1638 121.582 28.4368C120.987 28.7097 120.338 28.8188 119.58 28.8188C119.093 28.8188 118.606 28.7642 118.118 28.6551C117.631 28.5459 117.144 28.3276 116.71 28.0547C116.278 27.7817 115.953 27.3997 115.683 26.9085C115.412 26.4173 115.303 25.8169 115.303 25.1619C115.303 24.2886 115.52 23.6337 116.007 23.0878C116.494 22.542 117.09 22.16 117.793 21.887C118.551 21.6141 119.363 21.3958 120.23 21.2866C121.095 21.1775 122.016 21.1229 122.882 21.1229V20.9046C122.882 20.3042 122.665 19.8676 122.287 19.5946C121.854 19.3217 121.366 19.158 120.771 19.158C120.23 19.158 119.688 19.2672 119.147 19.5401C118.714 19.7584 118.28 19.9767 117.956 20.2496C117.902 20.3042 117.739 20.3042 117.685 20.2496L116.061 18.4485ZM123.044 23.3607H122.557C122.124 23.3607 121.691 23.3607 121.258 23.4153C120.825 23.4699 120.446 23.5245 120.121 23.6337C119.796 23.7428 119.526 23.9065 119.255 24.1249C119.039 24.3432 118.931 24.6161 118.931 24.9981C118.931 25.2165 118.985 25.4348 119.093 25.5985C119.201 25.7623 119.309 25.8714 119.472 25.9806C119.634 26.0897 119.796 26.1444 120.013 26.1989C120.23 26.2535 120.392 26.2535 120.609 26.2535C121.42 26.2535 122.016 26.0352 122.395 25.5985C122.828 25.1619 123.044 24.5615 123.044 23.7973V23.3607Z" fill="#373636"/>
<path d="M137.552 20.3586C137.497 20.4677 137.335 20.4677 137.281 20.3586C137.064 20.1402 136.848 19.9765 136.523 19.8127C136.145 19.649 135.765 19.5398 135.386 19.5398C134.953 19.5398 134.629 19.649 134.249 19.8127C133.924 19.9765 133.654 20.1948 133.383 20.4677C133.167 20.7406 132.951 21.0681 132.842 21.4502C132.734 21.8322 132.625 22.2142 132.625 22.5963C132.625 23.033 132.68 23.415 132.788 23.7426C132.897 24.1246 133.113 24.4521 133.329 24.725C133.6 24.9979 133.87 25.2162 134.195 25.38C134.521 25.5437 134.899 25.5983 135.332 25.5983C135.711 25.5983 136.145 25.5437 136.523 25.38C136.848 25.2708 137.118 25.107 137.281 24.8887C137.389 24.7796 137.497 24.7796 137.552 24.8887L139.447 27.2358C139.501 27.3449 139.501 27.4541 139.447 27.5086C138.959 27.9453 138.418 28.2727 137.714 28.4911C136.956 28.764 136.145 28.8731 135.224 28.8731C134.304 28.8731 133.438 28.7094 132.625 28.4365C131.814 28.1636 131.11 27.727 130.514 27.1811C129.919 26.6354 129.431 25.9803 129.107 25.1617C128.782 24.3975 128.62 23.5242 128.62 22.4872C128.62 21.5047 128.782 20.6314 129.107 19.8673C129.431 19.1032 129.919 18.4482 130.514 17.8478C131.11 17.302 131.814 16.8654 132.625 16.5925C133.438 16.3195 134.304 16.1558 135.224 16.1558C135.657 16.1558 136.09 16.2104 136.469 16.265C136.902 16.3195 137.281 16.4287 137.66 16.5925C138.039 16.7016 138.418 16.9199 138.742 17.0837L139.447 17.5203C139.555 17.5749 139.555 17.7386 139.501 17.7932L137.552 20.3586Z" fill="#373636"/>
<path d="M152.655 22.7605C152.655 22.9242 152.655 23.088 152.655 23.2517C152.655 23.4155 152.655 23.5792 152.655 23.6884H144.102C144.156 24.0159 144.211 24.3433 144.373 24.6162C144.535 24.8892 144.752 25.1075 145.022 25.3258C145.293 25.5441 145.563 25.6532 145.889 25.817C146.214 25.9262 146.538 25.9808 146.917 25.9808C147.513 25.9808 148.054 25.8716 148.487 25.6532C148.866 25.4349 149.191 25.2166 149.407 24.8892C149.461 24.8345 149.57 24.78 149.678 24.8345L152.06 26.3628C152.168 26.4174 152.168 26.5812 152.114 26.6357C151.572 27.3452 150.869 27.9456 150.057 28.3277C149.137 28.7644 148.108 28.9827 146.917 28.9827C146.051 28.9827 145.185 28.819 144.427 28.546C143.615 28.2732 142.966 27.8365 142.37 27.3452C141.774 26.7995 141.288 26.1445 140.963 25.3804C140.637 24.6162 140.475 23.6884 140.475 22.7059C140.475 21.7235 140.637 20.8501 140.963 20.086C141.288 19.3219 141.72 18.6124 142.315 18.0665C142.857 17.5207 143.561 17.084 144.319 16.8112C145.076 16.4836 145.943 16.3745 146.809 16.3745C147.675 16.3745 148.487 16.5383 149.191 16.8112C149.894 17.084 150.544 17.5207 151.085 18.0665C151.626 18.6124 152.005 19.3219 152.331 20.086C152.493 20.8501 152.655 21.7235 152.655 22.7605ZM148.866 21.2322C148.974 21.2322 149.083 21.1231 149.083 21.0139C149.029 20.4681 148.866 20.0314 148.487 19.6494C148.108 19.2128 147.513 18.9944 146.755 18.9944C146.376 18.9944 146.051 19.049 145.726 19.1581C145.401 19.2673 145.131 19.4311 144.914 19.6494C144.698 19.8677 144.481 20.086 144.373 20.3589C144.211 20.6318 144.156 20.9048 144.156 21.2322H148.866Z" fill="#373636"/>
<path d="M162.831 28.4364L160.558 21.8321C160.504 21.6684 160.234 21.6684 160.179 21.8321L157.743 28.4364C157.689 28.491 157.635 28.5456 157.581 28.5456H153.792C153.63 28.5456 153.575 28.3819 153.63 28.2727L158.068 16.7561C158.122 16.7015 158.176 16.647 158.231 16.647H162.615C162.723 16.647 162.777 16.7015 162.777 16.7561L166.946 28.2727C167 28.3819 166.892 28.5456 166.784 28.5456H162.994C162.94 28.5456 162.886 28.491 162.831 28.4364Z" fill="#373636"/>
<path d="M47.0417 37.9883L46.3921 37.5517C46.3921 37.5517 46.4463 37.4426 46.5004 37.3334C46.5545 37.2242 46.6628 37.1151 46.8252 37.0059C46.9876 36.8967 47.15 36.7875 47.4207 36.6784C47.6913 36.5692 47.962 36.5146 48.2868 36.5146C48.6116 36.5146 48.8823 36.5692 49.0988 36.6238C49.3154 36.6784 49.5319 36.7875 49.6943 36.9513C49.8567 37.0605 49.965 37.2242 50.0191 37.3879C50.0732 37.5517 50.1274 37.7154 50.1274 37.8792C50.1274 38.2066 50.0191 38.4796 49.8026 38.6979C49.586 38.9162 49.3154 39.0254 48.9906 39.0799V39.1346C49.153 39.1346 49.3154 39.1891 49.4778 39.1891C49.6402 39.2437 49.8026 39.2982 49.9108 39.4074C50.0191 39.5166 50.1274 39.6258 50.2356 39.735C50.2898 39.8987 50.3439 40.0624 50.3439 40.2262C50.3439 40.4445 50.2898 40.6628 50.1815 40.8266C50.0732 40.9903 49.9108 41.154 49.7484 41.3178C49.586 41.427 49.3154 41.5361 49.0988 41.5906C48.8282 41.6453 48.5575 41.6999 48.2327 41.6999C47.8538 41.6999 47.5831 41.6453 47.3124 41.5906C47.0959 41.4815 46.8793 41.427 46.7169 41.2632C46.5545 41.154 46.4463 41.0449 46.3921 40.9357C46.338 40.8266 46.2839 40.7719 46.2297 40.7719L46.8252 40.2262C46.8252 40.2262 46.8793 40.2807 46.9335 40.3353C46.9876 40.3899 47.0959 40.4991 47.2041 40.5536C47.3124 40.6628 47.4748 40.7174 47.6372 40.7719C47.7996 40.8266 48.0162 40.8811 48.2327 40.8811C48.6116 40.8811 48.8823 40.8266 49.0447 40.6628C49.2612 40.499 49.3695 40.3353 49.3695 40.0624C49.3695 39.8441 49.2612 39.6803 49.0988 39.5166C48.8823 39.3529 48.6116 39.2982 48.2327 39.2982H47.5289V38.6433H48.1786C48.5034 38.6433 48.7199 38.5887 48.9364 38.4795C49.153 38.3704 49.2612 38.1521 49.2612 37.9338C49.2612 37.7154 49.153 37.5517 48.9906 37.3334C48.8282 37.1696 48.5575 37.0605 48.1786 37.0605C47.962 37.0605 47.7455 37.1151 47.5831 37.1696C47.4207 37.2242 47.3124 37.3334 47.2041 37.4426C47.15 37.7154 47.0959 37.8792 47.0417 37.9883Z" fill="#676767"/>
<path d="M54.6748 38.4797C54.6748 38.0977 54.5665 37.8247 54.35 37.661C54.1334 37.4973 53.8627 37.3881 53.4838 37.3881C53.2131 37.3881 52.9425 37.4427 52.7259 37.5518C52.5094 37.661 52.2929 37.7701 52.1305 37.9339L51.5891 37.3335C51.8057 37.1152 52.0763 36.9514 52.4553 36.7877C52.7801 36.624 53.159 36.5693 53.5921 36.5693C53.8627 36.5693 54.1334 36.624 54.4041 36.6785C54.6748 36.7331 54.8372 36.8423 54.9996 37.0061C55.162 37.1697 55.3244 37.3335 55.4326 37.6064C55.5409 37.8793 55.595 38.0977 55.595 38.4251C55.595 38.5343 55.595 38.5889 55.595 38.6981C55.595 38.8072 55.595 38.8617 55.595 38.9709V40.5538C55.595 40.7175 55.595 40.9358 55.595 41.0996C55.595 41.3179 55.595 41.4817 55.6492 41.5908H54.783C54.783 41.4817 54.783 41.3725 54.7289 41.2088C54.7289 41.0996 54.7289 40.9905 54.7289 40.8267C54.5124 41.0996 54.2958 41.3179 54.0252 41.4817C53.7545 41.5908 53.4297 41.7 53.0507 41.7C52.8883 41.7 52.6718 41.7 52.4553 41.6454C52.2387 41.5909 52.0763 41.4817 51.9139 41.3725C51.7515 41.2633 51.5891 41.0996 51.4809 40.8813C51.3726 40.6629 51.3185 40.4446 51.3185 40.1717C51.3185 39.7897 51.4267 39.5168 51.5891 39.2985C51.8057 39.0801 52.0222 38.9164 52.347 38.8072C52.6718 38.6981 52.9966 38.6434 53.4297 38.5889C53.8086 38.5343 54.2417 38.5343 54.6748 38.5343V38.4797ZM54.5124 39.2985C54.2417 39.2985 53.971 39.2985 53.7003 39.353C53.4297 39.353 53.2131 39.4076 52.9966 39.4621C52.7801 39.5168 52.6177 39.6259 52.4553 39.7351C52.2929 39.8442 52.2387 40.008 52.2387 40.2263C52.2387 40.3901 52.2929 40.4992 52.347 40.6084C52.4011 40.7175 52.5094 40.7721 52.5635 40.8813C52.6718 40.9358 52.7801 40.9905 52.8883 41.045C52.9966 41.0996 53.159 41.0996 53.2673 41.0996C53.4838 41.0996 53.7003 41.045 53.8628 40.9905C54.0252 40.9358 54.1876 40.8267 54.2958 40.6629C54.4041 40.4992 54.5124 40.3901 54.5665 40.1717C54.6206 40.008 54.6748 39.7897 54.6748 39.6259V39.2985H54.5124Z" fill="#676767"/>
<path d="M58.0311 36.7329L60.034 39.1344L61.9827 36.7329H62.7948V41.6451H61.8203V38.0974L60.0881 40.2807H59.8175L58.0852 38.0974V41.6451H57.1108V36.7329H58.0311Z" fill="#676767"/>
<path d="M69.074 39.0801C69.074 39.1347 69.074 39.1893 69.074 39.2438C69.074 39.2985 69.074 39.353 69.074 39.4076H65.1765C65.1765 39.6259 65.2306 39.8442 65.3389 40.008C65.4472 40.1717 65.5554 40.3354 65.6637 40.4992C65.8261 40.6629 65.9885 40.7721 66.1509 40.8267C66.3674 40.9358 66.5298 40.9358 66.7463 40.9358C67.0711 40.9358 67.3959 40.8813 67.6124 40.7175C67.829 40.5538 68.0455 40.3901 68.1538 40.1717L68.8575 40.6629C68.5868 41.045 68.262 41.3179 67.9372 41.4817C67.6124 41.6454 67.1794 41.7545 66.7463 41.7545C66.3674 41.7545 66.0426 41.7 65.7178 41.5908C65.393 41.4817 65.1224 41.2633 64.9058 41.045C64.6893 40.8267 64.4727 40.5538 64.3645 40.2263C64.2562 39.8988 64.1479 39.5713 64.1479 39.1893C64.1479 38.8072 64.2021 38.4797 64.3645 38.1522C64.5269 37.8247 64.6893 37.5518 64.9058 37.3335C65.1224 37.1152 65.393 36.8969 65.7178 36.7877C66.0426 36.6785 66.3674 36.5693 66.6922 36.5693C67.0711 36.5693 67.3959 36.624 67.7207 36.7877C68.0455 36.9514 68.262 37.1152 68.4786 37.3335C68.6951 37.5518 68.8575 37.8247 68.9658 38.1522C69.074 38.4797 69.074 38.7526 69.074 39.0801ZM68.1538 38.7526C68.1538 38.316 67.9914 37.9885 67.7748 37.7156C67.5042 37.4427 67.1794 37.3335 66.6922 37.3335C66.4756 37.3335 66.2591 37.3881 66.0968 37.4427C65.9344 37.4973 65.772 37.6064 65.6096 37.7701C65.4472 37.8793 65.3389 38.0431 65.2848 38.2068C65.1765 38.3705 65.1765 38.5343 65.1224 38.7526H68.1538Z" fill="#676767"/>
<path d="M71.4015 41.6451H70.4271V36.7329H71.4015V38.6978H73.8916V36.7329H74.866V41.6451H73.8916V39.4619H71.4015V41.6451Z" fill="#676767"/>
<path d="M79.5213 38.4797C79.5213 38.0977 79.413 37.8247 79.1965 37.661C78.9801 37.4973 78.7094 37.3881 78.3305 37.3881C78.0598 37.3881 77.7891 37.4427 77.5726 37.5518C77.356 37.661 77.1395 37.7701 76.9771 37.9339L76.4358 37.3335C76.6523 37.1152 76.923 36.9514 77.3019 36.7877C77.6267 36.624 78.0056 36.5693 78.4387 36.5693C78.7093 36.5693 78.98 36.624 79.2506 36.6785C79.5213 36.7331 79.6837 36.8423 79.8461 37.0061C80.0085 37.1697 80.1709 37.3335 80.2792 37.6064C80.3875 37.8793 80.4416 38.0977 80.4416 38.4251C80.4416 38.5343 80.4416 38.5889 80.4416 38.6981C80.4416 38.8072 80.4416 38.8617 80.4416 38.9709V40.5538C80.4416 40.7175 80.4416 40.9358 80.4416 41.0996C80.4416 41.3179 80.4416 41.4817 80.4957 41.5908H79.6296C79.6296 41.4817 79.6296 41.3725 79.5754 41.2088C79.5754 41.0996 79.5754 40.9905 79.5754 40.8267C79.3589 41.0996 79.1424 41.3179 78.8717 41.4817C78.6011 41.5908 78.2763 41.7 77.8974 41.7C77.735 41.7 77.5184 41.7 77.3019 41.6454C77.0854 41.5909 76.923 41.4817 76.7606 41.3725C76.5982 41.2633 76.4358 41.0996 76.3275 40.8813C76.2192 40.6629 76.1651 40.4446 76.1651 40.1717C76.1651 39.7897 76.2734 39.5168 76.4358 39.2985C76.6523 39.0801 76.8688 38.9164 77.1936 38.8072C77.5184 38.6981 77.8432 38.6434 78.2763 38.5889C78.6553 38.5343 79.0882 38.5343 79.5213 38.5343V38.4797ZM79.3048 39.2985C79.0341 39.2985 78.7635 39.2985 78.4929 39.353C78.2222 39.353 78.0057 39.4076 77.7891 39.4621C77.5726 39.5168 77.4102 39.6259 77.2478 39.7351C77.0854 39.8442 77.0312 40.008 77.0312 40.2263C77.0312 40.3901 77.0854 40.4992 77.1395 40.6084C77.1936 40.7175 77.3019 40.7721 77.356 40.8813C77.4643 40.9358 77.5726 40.9905 77.6808 41.045C77.7891 41.0996 77.9515 41.0996 78.0598 41.0996C78.2763 41.0996 78.4928 41.045 78.6553 40.9905C78.8177 40.9358 78.9801 40.8267 79.0883 40.6629C79.1965 40.4992 79.3048 40.3901 79.3589 40.1717C79.413 40.008 79.4672 39.7897 79.4672 39.6259V39.2985H79.3048Z" fill="#676767"/>
<path d="M87.6952 38.4797C87.6952 38.0977 87.5871 37.8247 87.3709 37.661C87.1538 37.4973 86.8836 37.3881 86.5044 37.3881C86.2341 37.3881 85.9631 37.4427 85.7469 37.5518C85.5298 37.661 85.3136 37.7701 85.1515 37.9339L84.6101 37.3335C84.8263 37.1152 85.0966 36.9514 85.4758 36.7877C85.8009 36.624 86.1793 36.5693 86.6125 36.5693C86.8836 36.5693 87.1538 36.624 87.4249 36.6785C87.6952 36.7331 87.8573 36.8423 88.0203 37.0061C88.1825 37.1697 88.3446 37.3335 88.4535 37.6064C88.5616 37.8793 88.6157 38.0977 88.6157 38.4251C88.6157 38.5343 88.6157 38.5889 88.6157 38.6981C88.6157 38.8072 88.6157 38.8617 88.6157 38.9709V40.5538C88.6157 40.7175 88.6157 40.9358 88.6157 41.0996C88.6157 41.3179 88.6157 41.4817 88.6698 41.5908H87.8033C87.8033 41.4817 87.8033 41.3725 87.7492 41.2088C87.7492 41.0996 87.7492 40.9905 87.7492 40.8267C87.533 41.0996 87.316 41.3179 87.0457 41.4817C86.7747 41.5908 86.4503 41.7 86.0712 41.7C85.909 41.7 85.6928 41.7 85.4758 41.6454C85.2596 41.5909 85.0966 41.4817 84.9344 41.3725C84.7723 41.2633 84.6101 41.0996 84.5012 40.8813C84.3931 40.6629 84.3391 40.4446 84.3391 40.1717C84.3391 39.7897 84.4472 39.5168 84.6101 39.2985C84.8263 39.0801 85.0425 38.9164 85.3677 38.8072C85.6928 38.6981 86.0171 38.6434 86.4503 38.5889C86.8295 38.5343 87.262 38.5343 87.6952 38.5343V38.4797ZM87.479 39.2985C87.2079 39.2985 86.9376 39.2985 86.6666 39.353C86.3963 39.353 86.1793 39.4076 85.9631 39.4621C85.7469 39.5168 85.5839 39.6259 85.4217 39.7351C85.2596 39.8442 85.2055 40.008 85.2055 40.2263C85.2055 40.3901 85.2596 40.4992 85.3136 40.6084C85.3677 40.7175 85.4758 40.7721 85.5298 40.8813C85.6379 40.9358 85.7469 40.9905 85.855 41.045C85.9631 41.0996 86.1252 41.0996 86.2341 41.0996C86.4503 41.0996 86.6666 41.045 86.8295 40.9905C86.9917 40.9358 87.1538 40.8267 87.262 40.6629C87.3709 40.4992 87.479 40.3901 87.533 40.1717C87.5871 40.008 87.6411 39.7897 87.6411 39.6259V39.2985H87.479Z" fill="#676767"/>
<path d="M90.1857 41.6451V36.7329H92.4591C93.1086 36.7329 93.5418 36.842 93.8669 37.1149C94.1912 37.3879 94.3542 37.6607 94.3542 38.0974C94.3542 38.2611 94.3002 38.4249 94.2461 38.5886C94.1912 38.6978 94.0831 38.807 94.0291 38.9161C93.975 39.0253 93.8129 39.0799 93.7048 39.1344C93.5959 39.189 93.4337 39.2436 93.2715 39.2436C93.4337 39.2436 93.5959 39.2982 93.7588 39.3527C93.921 39.4073 94.0831 39.4619 94.1912 39.5711C94.3002 39.6803 94.4083 39.7894 94.4623 39.9531C94.5164 40.1169 94.5704 40.2807 94.5704 40.499C94.5704 40.881 94.4083 41.2085 94.0831 41.4268C93.7588 41.6451 93.2715 41.8089 92.6221 41.8089H90.1857V41.6451ZM92.297 38.8615C92.6221 38.8615 92.8383 38.807 93.0545 38.6978C93.2175 38.5886 93.3256 38.4249 93.3256 38.152C93.3256 37.9883 93.2715 37.8791 93.2175 37.7699C93.1634 37.6607 93.0545 37.6062 92.8924 37.5516C92.7843 37.497 92.6221 37.497 92.4591 37.4424C92.297 37.4424 92.0808 37.4424 91.8637 37.4424H91.1062V38.8615H92.297ZM91.1602 40.9356H91.9718C92.1889 40.9356 92.4051 40.9356 92.5672 40.9356C92.7843 40.9356 92.9464 40.881 93.0545 40.881C93.2175 40.8264 93.3256 40.7719 93.3796 40.6627C93.4878 40.5535 93.4877 40.4443 93.4877 40.226C93.4877 40.0623 93.4337 39.8986 93.3796 39.7894C93.3256 39.6803 93.1634 39.6256 93.0545 39.5711C92.8924 39.5165 92.7302 39.5165 92.5672 39.4619C92.4051 39.4073 92.1348 39.4619 91.9178 39.4619H91.1062V40.9356H91.1602Z" fill="#676767"/>
<path d="M95.1666 36.7329H99.4425V37.497H97.7103V41.6451H96.7366V37.497H95.1125V36.7329H95.1666Z" fill="#676767"/>
<path d="M105.397 39.1893C105.397 39.5713 105.343 39.8988 105.18 40.2263C105.072 40.5538 104.856 40.8267 104.639 41.045C104.423 41.2633 104.097 41.4817 103.827 41.5908C103.502 41.7 103.178 41.8092 102.799 41.8092C102.419 41.8092 102.095 41.7545 101.77 41.5908C101.445 41.4817 101.175 41.2633 100.958 41.045C100.741 40.8267 100.525 40.5538 100.417 40.2263C100.308 39.8988 100.2 39.5713 100.2 39.1893C100.2 38.8072 100.254 38.4797 100.417 38.1522C100.525 37.8247 100.741 37.5518 100.958 37.3335C101.175 37.1152 101.5 36.8969 101.77 36.7877C102.095 36.6785 102.419 36.5693 102.799 36.5693C103.178 36.5693 103.502 36.624 103.827 36.7877C104.152 36.8969 104.423 37.1152 104.639 37.3335C104.856 37.5518 105.072 37.8247 105.18 38.1522C105.343 38.4797 105.397 38.8072 105.397 39.1893ZM104.423 39.1893C104.423 38.9164 104.369 38.6981 104.315 38.4797C104.26 38.2614 104.097 38.0977 103.989 37.9339C103.827 37.7701 103.665 37.661 103.448 37.5518C103.232 37.4427 103.015 37.3881 102.745 37.3881C102.473 37.3881 102.257 37.4427 102.041 37.5518C101.824 37.661 101.662 37.7701 101.5 37.9339C101.337 38.0977 101.229 38.2614 101.175 38.4797C101.121 38.6981 101.066 38.9164 101.066 39.1893C101.066 39.4076 101.121 39.6805 101.175 39.8988C101.229 40.1171 101.337 40.2809 101.5 40.4446C101.662 40.6084 101.824 40.7175 102.041 40.8267C102.257 40.9358 102.473 40.9905 102.745 40.9905C103.015 40.9905 103.232 40.9358 103.448 40.8267C103.665 40.7175 103.827 40.6084 103.989 40.4446C104.152 40.2809 104.26 40.1171 104.315 39.8988C104.369 39.6805 104.423 39.4621 104.423 39.1893Z" fill="#676767"/>
<path d="M107.617 36.7329L109.619 39.1344L111.568 36.7329H112.38V41.6451H111.406V38.0974L109.673 40.2807H109.403L107.671 38.0974V41.6451H106.696V36.7329H107.617Z" fill="#676767"/>
<path d="M117.09 38.4797C117.09 38.0977 116.981 37.8247 116.764 37.661C116.548 37.4973 116.277 37.3881 115.899 37.3881C115.628 37.3881 115.357 37.4427 115.14 37.5518C114.924 37.661 114.707 37.7701 114.545 37.9339L114.004 37.3335C114.22 37.1152 114.491 36.9514 114.87 36.7877C115.195 36.624 115.574 36.5693 116.007 36.5693C116.277 36.5693 116.548 36.624 116.819 36.6785C117.09 36.7331 117.252 36.8423 117.414 37.0061C117.577 37.1697 117.739 37.3335 117.847 37.6064C117.955 37.8793 118.009 38.0977 118.009 38.4251C118.009 38.5343 118.009 38.5889 118.009 38.6981C118.009 38.8072 118.009 38.8617 118.009 38.9709V40.5538C118.009 40.7175 118.009 40.9358 118.009 41.0996C118.009 41.3179 118.009 41.4817 118.064 41.5908H117.198C117.198 41.4817 117.198 41.3725 117.144 41.2088C117.144 41.0996 117.144 40.9905 117.144 40.8267C116.927 41.0996 116.71 41.3179 116.44 41.4817C116.169 41.5908 115.844 41.7 115.466 41.7C115.303 41.7 115.086 41.7 114.87 41.6454C114.653 41.5909 114.491 41.4817 114.329 41.3725C114.166 41.2633 114.004 41.0996 113.896 40.8813C113.788 40.6629 113.733 40.4446 113.733 40.1717C113.733 39.7897 113.842 39.5168 114.004 39.2985C114.22 39.0801 114.437 38.9164 114.761 38.8072C115.086 38.6981 115.412 38.6434 115.844 38.5889C116.223 38.5343 116.656 38.5343 117.09 38.5343V38.4797ZM116.927 39.2985C116.656 39.2985 116.385 39.2985 116.115 39.353C115.844 39.353 115.628 39.4076 115.412 39.4621C115.194 39.5168 115.032 39.6259 114.87 39.7351C114.707 39.8442 114.653 40.008 114.653 40.2263C114.653 40.3901 114.707 40.4992 114.761 40.6084C114.816 40.7175 114.924 40.7721 114.978 40.8813C115.086 40.9358 115.195 40.9905 115.303 41.045C115.412 41.0996 115.574 41.0996 115.682 41.0996C115.899 41.0996 116.115 41.045 116.277 40.9905C116.44 40.9358 116.602 40.8267 116.71 40.6629C116.819 40.4992 116.927 40.3901 116.981 40.1717C117.036 40.008 117.09 39.7897 117.09 39.6259V39.2985H116.927Z" fill="#676767"/>
<path d="M123.152 37.9885C123.044 37.8247 122.882 37.661 122.665 37.5518C122.449 37.4427 122.232 37.3881 122.016 37.3881C121.745 37.3881 121.528 37.4427 121.312 37.5518C121.095 37.661 120.933 37.7701 120.771 37.9339C120.608 38.0977 120.5 38.2614 120.446 38.4797C120.392 38.6981 120.338 38.9164 120.338 39.1893C120.338 39.4621 120.392 39.6805 120.446 39.8988C120.5 40.1171 120.663 40.2809 120.771 40.4446C120.879 40.6084 121.095 40.7175 121.312 40.8267C121.528 40.9358 121.745 40.9905 122.016 40.9905C122.286 40.9905 122.503 40.9358 122.719 40.8267C122.936 40.7175 123.098 40.6084 123.207 40.3901L123.856 40.9905C123.64 41.2088 123.369 41.4271 123.098 41.5908C122.827 41.7545 122.449 41.8092 122.016 41.8092C121.637 41.8092 121.258 41.7545 120.933 41.5908C120.608 41.4817 120.338 41.2633 120.121 41.045C119.904 40.8267 119.688 40.5538 119.58 40.2263C119.471 39.8988 119.363 39.5713 119.363 39.1893C119.363 38.8072 119.417 38.4797 119.58 38.1522C119.688 37.8247 119.904 37.5518 120.121 37.3335C120.338 37.1152 120.608 36.8969 120.933 36.7877C121.258 36.6785 121.637 36.5693 122.016 36.5693C122.341 36.5693 122.665 36.624 123.044 36.7877C123.369 36.9514 123.64 37.1152 123.856 37.3881L123.152 37.9885Z" fill="#676767"/>
<path d="M129.378 39.0801C129.378 39.1347 129.378 39.1893 129.378 39.2438C129.378 39.2985 129.378 39.353 129.378 39.4076H125.481C125.481 39.6259 125.535 39.8442 125.643 40.008C125.751 40.1717 125.859 40.3354 125.968 40.4992C126.13 40.6629 126.292 40.7721 126.455 40.8267C126.672 40.9358 126.834 40.9358 127.05 40.9358C127.375 40.9358 127.7 40.8813 127.916 40.7175C128.133 40.5538 128.35 40.3901 128.458 40.1717L129.161 40.6629C128.891 41.045 128.566 41.3179 128.242 41.4817C127.916 41.6454 127.483 41.7545 127.05 41.7545C126.672 41.7545 126.346 41.7 126.022 41.5908C125.697 41.4817 125.427 41.2633 125.21 41.045C124.993 40.8267 124.776 40.5538 124.668 40.2263C124.56 39.8988 124.452 39.5713 124.452 39.1893C124.452 38.8072 124.506 38.4797 124.668 38.1522C124.831 37.8247 124.993 37.5518 125.21 37.3335C125.427 37.1152 125.697 36.8969 126.022 36.7877C126.346 36.6785 126.672 36.5693 126.996 36.5693C127.375 36.5693 127.7 36.624 128.024 36.7877C128.35 36.9514 128.566 37.1152 128.783 37.3335C128.999 37.5518 129.161 37.8247 129.27 38.1522C129.378 38.4797 129.378 38.7526 129.378 39.0801ZM128.458 38.7526C128.458 38.316 128.296 37.9885 128.079 37.7156C127.808 37.4427 127.483 37.3335 126.996 37.3335C126.78 37.3335 126.563 37.3881 126.4 37.4427C126.238 37.4973 126.076 37.6064 125.913 37.7701C125.751 37.8793 125.643 38.0431 125.589 38.2068C125.481 38.3705 125.481 38.5343 125.427 38.7526H128.458Z" fill="#676767"/>
<path d="M134.088 41.6451L132.626 37.8791L131.11 41.6451H130.082L132.139 36.7329H133.114L135.062 41.6451H134.088Z" fill="#676767"/>
<path d="M15.4284 29.6375C15.1577 29.3645 14.9953 28.9279 14.8871 28.5459C14.7246 28.9825 14.5622 29.4737 14.454 29.9649C14.454 30.2379 14.454 30.5108 14.5622 30.7837C14.7246 31.3295 15.0495 31.9845 15.5908 32.2573C15.8615 32.4211 16.2945 32.6394 16.6193 32.5303C16.9441 32.4211 17.7561 31.9845 17.5396 31.4933C17.2148 30.6745 16.0239 30.2925 15.4284 29.6375Z" fill="url(#paint0_linear_122_2354)"/>
<path d="M18.9467 41.7543C18.8926 42.9551 19.2174 44.3197 19.8128 45.7934C19.7046 43.9922 20.0294 42.1364 21.7074 41.9181C23.2773 41.6998 23.548 42.7914 23.4397 44.265C23.3315 45.4658 22.736 45.7934 22.6277 47.5945C22.5194 49.1774 23.2773 50.3235 24.4683 50.3235C25.5509 50.3235 26.2005 48.577 25.9839 47.267C25.8215 46.23 25.1179 45.4658 25.0637 44.5926C24.9555 43.1734 25.7674 42.4094 27.4455 42.3002C28.9072 42.191 28.9613 43.6646 28.7448 45.4113C28.4741 47.1033 27.4455 48.0858 28.041 50.7056C28.5282 52.7251 29.8274 53.3255 30.8018 53.3801C32.101 53.4346 33.9957 52.5614 33.6709 49.1228C32.6964 45.575 32.6964 44.8654 32.2092 36.4054C32.1551 35.6413 32.1551 34.9318 32.101 34.2222C28.5282 35.8596 19.1632 37.115 18.9467 41.7543Z" fill="url(#paint1_linear_122_2354)"/>
<path d="M25.2803 39.8984C27.7704 39.3526 30.044 38.1519 31.0726 36.8965C31.5056 36.4052 31.8845 35.914 32.1552 35.2591C31.8845 30.2376 31.7762 27.0719 31.7221 25.4345V24.5612C29.3944 23.7425 28.7448 25.2162 25.2262 26.144C23.0609 26.7444 21.3828 27.1811 20.0294 27.836C20.5166 28.7093 20.8414 29.6918 20.679 30.6743C20.246 33.1304 17.7558 34.222 15.5364 33.4033C14.6161 33.0758 14.0207 32.53 13.6417 31.9296C9.41937 33.3487 2.7069 34.877 2.49037 38.8068C2.3821 40.7717 3.30236 42.6275 4.76395 44.3195C4.65568 43.7737 4.60155 43.1187 4.60155 42.1363C4.54742 41.2083 4.60155 40.3351 5.73834 40.2259C7.52473 40.1167 6.009 44.4832 9.36524 44.7015C11.9095 44.7015 10.1231 40.6626 13.1004 40.6626C14.3996 40.6626 14.7785 41.3175 14.8868 42.5729C14.9951 44.1011 13.8041 45.3019 13.8041 47.376C13.8041 49.4501 14.8868 51.9608 17.2686 51.7425C19.9753 51.5242 20.1918 48.4676 19.9212 46.5027C19.7588 45.3019 19.7588 43.9374 20.246 43.0095C20.7873 41.7542 22.0864 40.6079 25.2803 39.8984Z" fill="url(#paint2_linear_122_2354)"/>
<path d="M11.6388 33.0213C12.6131 32.8576 13.4793 32.7484 14.3454 32.7484C11.4223 30.3468 14.7785 24.9433 16.8896 22.7056C16.9437 22.6509 16.9979 22.5418 17.1061 22.4872C17.2144 22.4326 17.3227 22.4326 17.3227 22.5418C17.3227 22.5964 17.3227 22.6509 17.3227 22.7056C17.4309 24.6159 18.4595 25.5437 19.5422 26.9628C20.3 27.9453 21.0038 29.3644 20.7331 30.6744C20.5166 31.8205 19.8128 32.6938 18.9467 33.1851C21.3827 33.6217 23.9811 34.1129 27.4455 33.8946C29.232 33.7855 30.8018 32.7484 32.0468 31.2201C31.9386 28.4365 31.8844 26.4716 31.8303 25.3254V17.0291C29.9357 16.1558 27.9869 15.6646 26.0381 15.4463L27.0666 16.4833C28.041 17.4658 28.041 19.0486 27.0666 19.9765C26.5794 20.4677 25.984 20.686 25.3344 20.686C24.6848 20.686 24.0893 20.4132 23.6021 19.9765L19.3256 15.61C16.1318 16.0467 13.2627 16.8108 10.8268 17.4658C7.09159 18.4482 4.43908 19.2124 2.38203 20.5768V21.8868C2.38203 21.8868 2.27376 30.5652 1.8407 35.6958C1.51591 39.2981 1.29937 41.9181 0.649778 45.0291C-0.0539498 48.3585 -0.920076 52.2884 2.27376 52.7796C5.41348 53.2709 5.84654 50.378 5.46761 47.5944C5.14281 45.2474 4.65561 45.1929 4.54735 42.1364C4.54735 41.7543 4.54735 41.3722 4.60148 41.0447V40.9901C5.19694 39.0798 6.65853 34.0038 11.6388 33.0213Z" fill="url(#paint3_linear_122_2354)"/>
<path d="M12.2883 23.579C13.6957 23.3061 14.8866 23.4152 16.0234 23.7427C16.2941 23.3607 16.6189 23.0332 16.8896 22.7057C16.9437 22.6511 16.9978 22.5419 17.1061 22.4874C17.2144 22.4328 17.3226 22.4328 17.3226 22.5419C17.3226 22.5966 17.3226 22.6511 17.3226 22.7057C17.3768 23.3607 17.485 23.8519 17.7016 24.3431C20.1375 25.4347 22.5194 27.1267 26.6876 26.9084C28.5282 26.7993 30.3145 26.0351 31.8302 24.8343V16.7564C31.8302 15.8831 31.5054 15.0098 30.8558 14.4094L22.8442 6.27686C18.1888 6.27686 13.5875 7.47763 10.0688 8.4601C6.82083 9.33338 4.33072 10.0429 2.38193 11.0799V21.887C2.38193 21.887 2.3278 27.3997 2.05713 32.2028C4.49311 30.9475 6.4419 24.7252 12.2883 23.579ZM16.9978 9.82458C17.9722 8.84218 19.4879 8.84218 20.4623 9.82458L27.0124 16.4289C27.9868 17.4114 27.9868 18.9942 27.0124 19.9221C26.5252 20.4133 25.9297 20.6316 25.2801 20.6316C24.6305 20.6316 24.0351 20.3587 23.5479 19.9221L16.9978 13.3178C16.0234 12.3899 16.0234 10.8071 16.9978 9.82458Z" fill="url(#paint4_linear_122_2354)"/>
<path d="M30.8558 14.4094L22.4653 5.94932C21.8698 5.34893 21.0036 4.96686 20.1376 4.96686H17.052V2.51072C17.1061 1.09162 15.9693 0 14.616 0H8.12004C6.76673 0 5.68407 1.09162 5.68407 2.45614V4.91228C3.89769 4.91228 2.4361 6.38597 2.4361 8.24168V21.8323C2.4361 21.8323 2.4361 22.1053 2.4361 22.4874C5.62994 23.1969 7.14566 15.0098 13.9664 13.6452C15.3198 13.3723 16.5106 13.4815 17.5933 13.7544L17.1061 13.2631C16.1317 12.2807 16.1317 10.6978 17.1061 9.77C18.0805 8.78752 19.5963 8.78752 20.5707 9.77L27.1207 16.3742C27.2831 16.538 27.4455 16.7563 27.5538 16.9746C27.8244 16.9746 28.0951 16.9746 28.3658 16.9746C29.5026 16.9201 30.7476 16.7018 31.8844 16.3742C31.722 15.7193 31.3972 14.9552 30.8558 14.4094Z" fill="url(#paint5_linear_122_2354)"/>
<path d="M24.9552 51.9062C24.1432 51.9062 23.4395 53.6528 23.4395 54.4715C23.4395 55.2902 24.0891 55.9998 24.9011 55.9998C25.7131 55.9998 26.3627 55.3448 26.4168 54.5261C26.4168 53.7074 25.7672 51.9062 24.9552 51.9062Z" fill="url(#paint6_linear_122_2354)"/>
<path d="M16.2403 53.5439C15.6989 53.5439 15.2117 54.1989 15.1576 54.7447C15.1576 55.2905 15.5365 55.7818 16.0779 55.7818C16.6192 55.7818 17.0522 55.3997 17.1063 54.8539C17.1605 54.2535 16.7816 53.5439 16.2403 53.5439Z" fill="url(#paint7_linear_122_2354)"/>
<path d="M8.98624 48.4135C9.63585 48.4135 10.123 48.0314 10.1771 47.4856C10.1771 46.9944 9.68998 45.8481 9.04038 45.8481C8.39077 45.8481 7.84943 46.9398 7.84943 47.431C7.84943 47.9769 8.33664 48.3589 8.98624 48.4135Z" fill="url(#paint8_linear_122_2354)"/>
<path d="M8.71526 50.1597C7.6326 50.1597 6.6582 52.5067 6.6582 53.6529C6.6582 54.7991 7.52433 55.6724 8.66113 55.7269C9.74381 55.7269 10.664 54.8537 10.664 53.7074C10.664 52.5613 9.79794 50.2143 8.71526 50.1597Z" fill="url(#paint9_linear_122_2354)"/>
<path d="M9.47338 51.5791C9.47338 51.5791 9.41924 53.2165 9.04031 53.9806C8.76964 54.4718 9.25684 55.0722 9.63578 55.1269C10.0688 55.1814 10.4477 54.7448 10.5018 54.1989C10.7184 52.4524 9.47338 51.5791 9.47338 51.5791Z" fill="url(#paint10_linear_122_2354)"/>
<path d="M9.25701 46.5576C9.25701 46.5576 9.25701 47.2671 9.04047 47.5947C8.87807 47.813 9.20288 48.0859 9.41941 48.0859C9.69008 48.1405 9.90661 47.9222 9.90661 47.7038C10.0149 46.9397 9.25701 46.5576 9.25701 46.5576Z" fill="url(#paint11_linear_122_2354)"/>
<path opacity="0.9" d="M3.78937 46.1211C3.78937 46.1211 3.57285 48.5773 2.49019 49.8326C1.73232 50.7605 2.16538 52.0705 2.81498 52.3433C3.46458 52.6162 4.4931 52.0705 4.9803 50.9788C6.00882 48.4135 3.78937 46.1211 3.78937 46.1211Z" fill="url(#paint12_linear_122_2354)"/>
<path d="M19.0004 44.2651C19.0004 44.2651 17.9719 47.4308 16.5103 48.4133C15.4818 49.1228 15.6983 50.7057 16.4021 51.1969C17.1058 51.7427 18.3508 51.3607 19.1087 50.3236C20.6786 47.9767 19.0004 44.2651 19.0004 44.2651Z" fill="url(#paint13_linear_122_2354)"/>
<path d="M25.7129 46.9395C25.7129 46.9395 25.0633 48.3585 24.3054 48.7406C23.7641 49.0135 23.7641 49.7776 24.0889 49.9959C24.3596 50.2689 24.9551 50.1051 25.334 49.6685C26.2001 48.686 25.7129 46.9395 25.7129 46.9395Z" fill="url(#paint14_linear_122_2354)"/>
<path d="M25.7674 52.9434C25.7674 52.9434 25.4967 54.2534 24.9554 54.7446C24.5765 55.072 24.7389 55.6724 25.0095 55.8362C25.2802 55.9999 25.7674 55.7816 25.9839 55.345C26.5794 54.3079 25.7674 52.9434 25.7674 52.9434Z" fill="url(#paint15_linear_122_2354)"/>
<path d="M32.0468 45.8481C32.0468 45.8481 31.4514 49.0138 30.477 50.3238C29.7732 51.2517 30.3687 52.5616 31.0724 52.8345C31.7762 53.0529 32.7506 52.3433 33.1295 51.1971C33.8874 48.5772 32.0468 45.8481 32.0468 45.8481Z" fill="url(#paint16_linear_122_2354)"/>
</g>
</g>
<defs>
<linearGradient id="paint0_linear_122_2354" x1="14.4585" y1="30.551" x2="17.5503" y2="30.551" gradientUnits="userSpaceOnUse">
<stop stop-color="#C5874E"/>
<stop offset="1" stop-color="#F0C836"/>
</linearGradient>
<linearGradient id="paint1_linear_122_2354" x1="18.3315" y1="50.0204" x2="36.9056" y2="40.5996" gradientUnits="userSpaceOnUse">
<stop stop-color="#D1B42B"/>
<stop offset="1" stop-color="#F8E558"/>
</linearGradient>
<linearGradient id="paint2_linear_122_2354" x1="2.49448" y1="38.0369" x2="35.3908" y2="38.0369" gradientUnits="userSpaceOnUse">
<stop stop-color="#CC9C52"/>
<stop offset="0.9996" stop-color="#E8B934"/>
</linearGradient>
<linearGradient id="paint3_linear_122_2354" x1="-2.28109" y1="34.1282" x2="35.583" y2="34.1282" gradientUnits="userSpaceOnUse">
<stop stop-color="#C5874E"/>
<stop offset="1" stop-color="#DD9434"/>
</linearGradient>
<linearGradient id="paint4_linear_122_2354" x1="-3.4" y1="19.2503" x2="37.5419" y2="19.2503" gradientUnits="userSpaceOnUse">
<stop stop-color="#B85040"/>
<stop offset="1" stop-color="#D57930"/>
</linearGradient>
<linearGradient id="paint5_linear_122_2354" x1="-1.48843" y1="18.1321" x2="18.2169" y2="9.06316" gradientUnits="userSpaceOnUse">
<stop stop-color="#A13331"/>
<stop offset="1" stop-color="#C52F27"/>
</linearGradient>
<linearGradient id="paint6_linear_122_2354" x1="23.4534" y1="53.9457" x2="26.4059" y2="53.9457" gradientUnits="userSpaceOnUse">
<stop stop-color="#D1B42B"/>
<stop offset="1" stop-color="#F8E558"/>
</linearGradient>
<linearGradient id="paint7_linear_122_2354" x1="15.2065" y1="54.6367" x2="17.1617" y2="54.6367" gradientUnits="userSpaceOnUse">
<stop stop-color="#CC9C52"/>
<stop offset="0.9996" stop-color="#EFCA34"/>
</linearGradient>
<linearGradient id="paint8_linear_122_2354" x1="7.84196" y1="47.1144" x2="10.1533" y2="47.1144" gradientUnits="userSpaceOnUse">
<stop stop-color="#CC9C52"/>
<stop offset="0.9996" stop-color="#EFCA34"/>
</linearGradient>
<linearGradient id="paint9_linear_122_2354" x1="6.64786" y1="52.9438" x2="10.6553" y2="52.9438" gradientUnits="userSpaceOnUse">
<stop stop-color="#CC9C52"/>
<stop offset="0.9996" stop-color="#EFCA34"/>
</linearGradient>
<linearGradient id="paint10_linear_122_2354" x1="9.05805" y1="53.2867" x2="10.5984" y2="53.4639" gradientUnits="userSpaceOnUse">
<stop stop-color="#E2D75E" stop-opacity="0.2"/>
<stop offset="0.2545" stop-color="#EBDE52" stop-opacity="0.3527"/>
<stop offset="0.6559" stop-color="#F5E742" stop-opacity="0.5935"/>
<stop offset="1" stop-color="#F8EA3C" stop-opacity="0.8"/>
</linearGradient>
<linearGradient id="paint11_linear_122_2354" x1="9.0433" y1="47.2783" x2="9.98273" y2="47.3864" gradientUnits="userSpaceOnUse">
<stop stop-color="#E2D75E" stop-opacity="0.2"/>
<stop offset="0.2545" stop-color="#EBDE52" stop-opacity="0.3527"/>
<stop offset="0.6559" stop-color="#F5E742" stop-opacity="0.5935"/>
<stop offset="1" stop-color="#F8EA3C" stop-opacity="0.8"/>
</linearGradient>
<linearGradient id="paint12_linear_122_2354" x1="2.6455" y1="48.9562" x2="5.38273" y2="50.0485" gradientUnits="userSpaceOnUse">
<stop stop-color="#E2D75E" stop-opacity="0"/>
<stop offset="1" stop-color="#F8E363"/>
</linearGradient>
<linearGradient id="paint13_linear_122_2354" x1="16.8889" y1="47.1724" x2="19.817" y2="49.2815" gradientUnits="userSpaceOnUse">
<stop stop-color="#E2D75E" stop-opacity="0"/>
<stop offset="0.2545" stop-color="#EBDE52" stop-opacity="0.2036"/>
<stop offset="0.6559" stop-color="#F5E742" stop-opacity="0.5247"/>
<stop offset="1" stop-color="#F8EA3C" stop-opacity="0.8"/>
</linearGradient>
<linearGradient id="paint14_linear_122_2354" x1="24.5699" y1="48.2219" x2="25.7401" y2="49.2703" gradientUnits="userSpaceOnUse">
<stop stop-color="#E2D75E" stop-opacity="0.2"/>
<stop offset="0.2545" stop-color="#EBDE52" stop-opacity="0.3527"/>
<stop offset="0.6559" stop-color="#F5E742" stop-opacity="0.5935"/>
<stop offset="1" stop-color="#F8EA3C" stop-opacity="0.8"/>
</linearGradient>
<linearGradient id="paint15_linear_122_2354" x1="25.0988" y1="54.2111" x2="26.2723" y2="54.8471" gradientUnits="userSpaceOnUse">
<stop stop-color="#E2D75E" stop-opacity="0.2"/>
<stop offset="0.2116" stop-color="#E9DD55" stop-opacity="0.3269"/>
<stop offset="0.6361" stop-color="#F3E746" stop-opacity="0.5817"/>
<stop offset="1" stop-color="#F7EA40" stop-opacity="0.8"/>
</linearGradient>
<linearGradient id="paint16_linear_122_2354" x1="30.7997" y1="49.0777" x2="33.5257" y2="49.9411" gradientUnits="userSpaceOnUse">
<stop stop-color="#E2D75E" stop-opacity="0.2"/>
<stop offset="0.0259888" stop-color="#E3D862" stop-opacity="0.2208"/>
<stop offset="0.2948" stop-color="#EBE380" stop-opacity="0.4359"/>
<stop offset="0.5529" stop-color="#F1EB96" stop-opacity="0.6425"/>
<stop offset="0.7937" stop-color="#F5F0A3" stop-opacity="0.8352"/>
<stop offset="0.9996" stop-color="#F6F1A8"/>
</linearGradient>
<clipPath id="clip0_122_2354">
<rect width="167" height="56" fill="white"/>
</clipPath>
</defs>
</svg>
