<svg width="24" height="38" viewBox="0 0 24 38" fill="none" xmlns="http://www.w3.org/2000/svg">
<path d="M10.7723 19.6074C10.5892 19.4228 10.4794 19.1275 10.4062 18.8691C10.2963 19.1644 10.1865 19.4966 10.1133 19.8288C10.1133 20.0134 10.1133 20.198 10.1865 20.3825C10.2963 20.7517 10.516 21.1947 10.8821 21.3792C11.0652 21.49 11.3581 21.6376 11.5777 21.5638C11.7974 21.49 12.3465 21.1947 12.2001 20.8625C11.9804 20.3087 11.175 20.0503 10.7723 19.6074Z" fill="url(#paint0_linear_2020_3)"/>
<path d="M13.1519 27.8025C13.1153 28.6146 13.335 29.5375 13.7377 30.5341C13.6645 29.316 13.8841 28.0609 15.019 27.9133C16.0807 27.7656 16.2638 28.5039 16.1906 29.5005C16.1173 30.3126 15.7146 30.5341 15.6414 31.7523C15.5682 32.8228 16.0807 33.5979 16.8862 33.5979C17.6183 33.5979 18.0577 32.4167 17.9112 31.5308C17.8014 30.8295 17.3255 30.3126 17.2889 29.722C17.2157 28.7623 17.7648 28.2455 18.8997 28.1717C19.8882 28.0978 19.9248 29.0945 19.7784 30.2757C19.5953 31.4201 18.8997 32.0845 19.3024 33.8563C19.6319 35.2221 20.5106 35.6282 21.1695 35.6651C22.0482 35.702 23.3296 35.1114 23.1099 32.7859C22.4509 30.3865 22.4509 29.9066 22.1214 24.1851C22.0848 23.6683 22.0848 23.1884 22.0482 22.7085C19.6319 23.8159 13.2983 24.6649 13.1519 27.8025Z" fill="url(#paint1_linear_2020_3)"/>
<path d="M17.4354 26.5469C19.1194 26.1778 20.6571 25.3657 21.3527 24.5167C21.6455 24.1844 21.9018 23.8522 22.0849 23.4093C21.9018 20.0133 21.8286 17.8723 21.792 16.7649V16.1743C20.2178 15.6206 19.7784 16.6173 17.3988 17.2448C15.9343 17.6508 14.7995 17.9461 13.8842 18.3891C14.2137 18.9797 14.4333 19.6441 14.3235 20.3086C14.0306 21.9697 12.3465 22.7079 10.8455 22.1542C10.2231 21.9327 9.82042 21.5636 9.56414 21.1576C6.70854 22.1173 2.16887 23.1509 2.02243 25.8087C1.94921 27.1375 2.57158 28.3926 3.56006 29.5369C3.48684 29.1678 3.45023 28.7248 3.45023 28.0604C3.41362 27.4328 3.45023 26.8422 4.21905 26.7684C5.42719 26.6946 4.4021 29.6476 6.67193 29.7953C8.39265 29.7953 7.18449 27.0637 9.19803 27.0637C10.0767 27.0637 10.333 27.5067 10.4062 28.3557C10.4794 29.3892 9.67398 30.2013 9.67398 31.604C9.67398 33.0068 10.4062 34.7048 12.017 34.5571C13.8476 34.4095 13.994 32.3423 13.811 31.0134C13.7011 30.2013 13.7011 29.2785 14.0306 28.651C14.3967 27.802 15.2753 27.0268 17.4354 26.5469Z" fill="url(#paint2_linear_2020_3)"/>
<path d="M8.20956 21.8958C8.8685 21.7851 9.45427 21.7113 10.04 21.7113C8.06311 20.0871 10.3329 16.4327 11.7607 14.9192C11.7973 14.8823 11.8339 14.8085 11.9072 14.7716C11.9804 14.7346 12.0536 14.7346 12.0536 14.8085C12.0536 14.8454 12.0536 14.8823 12.0536 14.9192C12.1268 16.2112 12.8224 16.8387 13.5546 17.7985C14.0672 18.4629 14.5431 19.4226 14.3601 20.3086C14.2136 21.0837 13.7377 21.6743 13.1519 22.0066C14.7994 22.3019 16.5567 22.6341 18.8997 22.4864C20.1079 22.4126 21.1696 21.7113 22.0116 20.6777C21.9384 18.7951 21.9018 17.4663 21.8652 16.6911V11.0802C20.5838 10.4896 19.2658 10.1574 17.9479 10.0098L18.6435 10.7111C19.3025 11.3756 19.3025 12.446 18.6435 13.0736C18.314 13.4058 17.9113 13.5534 17.472 13.5534C17.0326 13.5534 16.6299 13.3689 16.3004 13.0736L13.4082 10.1205C11.2482 10.4158 9.30783 10.9326 7.66039 11.3756C5.13426 12.04 3.34036 12.5568 1.94917 13.4796V14.3655C1.94917 14.3655 1.87595 20.2347 1.58306 23.7046C1.3634 26.1409 1.21696 27.9127 0.777638 30.0167C0.301703 32.2685 -0.284062 34.9262 1.87595 35.2584C3.99935 35.5907 4.29223 33.6343 4.03596 31.7517C3.81629 30.1644 3.4868 30.1275 3.41358 28.0604C3.41358 27.802 3.41358 27.5436 3.45019 27.3221V27.2852C3.8529 25.9932 4.84138 22.5603 8.20956 21.8958Z" fill="url(#paint3_linear_2020_3)"/>
<path d="M8.64885 15.5096C9.60074 15.3251 10.4061 15.3989 11.175 15.6204C11.358 15.362 11.5777 15.1405 11.7607 14.919C11.7973 14.8821 11.8339 14.8083 11.9072 14.7714C11.9804 14.7345 12.0536 14.7345 12.0536 14.8082C12.0536 14.8452 12.0536 14.8821 12.0536 14.919C12.0902 15.362 12.1634 15.6942 12.3099 16.0264C13.9573 16.7647 15.5682 17.909 18.3872 17.7613C19.632 17.6875 20.8401 17.1707 21.8652 16.3586V10.8955C21.8652 10.3048 21.6455 9.71422 21.2062 9.30816L15.7879 3.80811C12.6394 3.80811 9.52751 4.6202 7.1478 5.28464C4.95121 5.87524 3.26713 6.35509 1.94916 7.05645V14.3653C1.94916 14.3653 1.91255 18.0936 1.72949 21.3419C3.37696 20.4929 4.69493 16.2848 8.64885 15.5096ZM11.8339 6.20744C12.4929 5.54304 13.518 5.54304 14.177 6.20744L18.6069 10.674C19.2659 11.3384 19.2659 12.4089 18.6069 13.0364C18.2774 13.3686 17.8746 13.5163 17.4353 13.5163C16.996 13.5163 16.5933 13.3317 16.2638 13.0364L11.8339 8.56991C11.175 7.94241 11.175 6.8719 11.8339 6.20744Z" fill="url(#paint4_linear_2020_3)"/>
<path d="M21.2209 9.74511L15.5463 4.02355C15.1436 3.6175 14.5578 3.35911 13.9721 3.35911H11.8853V1.69801C11.9219 0.738265 11.153 0 10.2378 0H5.84457C4.92931 0 4.19711 0.738265 4.19711 1.6611V3.3222C2.98897 3.3222 2.00049 4.31886 2.00049 5.57388V14.7653C2.00049 14.7653 2.00049 14.9499 2.00049 15.2083C4.1605 15.6882 5.18559 10.1512 9.79849 9.22831C10.7138 9.04376 11.5192 9.11761 12.2514 9.30216L11.9219 8.96991C11.2629 8.3055 11.2629 7.235 11.9219 6.60749C12.5809 5.94304 13.606 5.94304 14.265 6.60749L18.6948 11.074C18.8046 11.1847 18.9145 11.3324 18.9877 11.48C19.1707 11.48 19.3538 11.48 19.5368 11.48C20.3057 11.4431 21.1477 11.2955 21.9165 11.074C21.8067 10.631 21.587 10.1143 21.2209 9.74511Z" fill="url(#paint5_linear_2020_3)"/>
<path d="M17.216 34.668C16.6669 34.668 16.1909 35.8492 16.1909 36.4029C16.1909 36.9566 16.6302 37.4364 17.1794 37.4364C17.7286 37.4364 18.1679 36.9935 18.2045 36.4398C18.2045 35.8861 17.7652 34.668 17.216 34.668Z" fill="url(#paint6_linear_2020_3)"/>
<path d="M11.3216 35.7754C10.9555 35.7754 10.626 36.2183 10.5894 36.5875C10.5894 36.9566 10.8456 37.2888 11.2117 37.2888C11.5779 37.2888 11.8707 37.0304 11.9073 36.6613C11.9439 36.2553 11.6877 35.7754 11.3216 35.7754Z" fill="url(#paint7_linear_2020_3)"/>
<path d="M6.41532 32.3053C6.85465 32.3053 7.18409 32.0469 7.22071 31.6777C7.22071 31.3455 6.89126 30.5703 6.45193 30.5703C6.0126 30.5703 5.64648 31.3086 5.64648 31.6408C5.64648 32.01 5.97599 32.2683 6.41532 32.3053Z" fill="url(#paint8_linear_2020_3)"/>
<path d="M6.23202 33.4868C5.49981 33.4868 4.84082 35.0741 4.84082 35.8493C4.84082 36.6245 5.42658 37.2151 6.19541 37.252C6.92763 37.252 7.54996 36.6614 7.54996 35.8862C7.54996 35.111 6.96424 33.5238 6.23202 33.4868Z" fill="url(#paint9_linear_2020_3)"/>
<path d="M6.74483 34.4468C6.74483 34.4468 6.70822 35.5541 6.45194 36.0709C6.26889 36.4031 6.59839 36.8092 6.85466 36.8461C7.1475 36.883 7.40377 36.5877 7.44038 36.2186C7.58683 35.0374 6.74483 34.4468 6.74483 34.4468Z" fill="url(#paint10_linear_2020_3)"/>
<path d="M6.59898 31.0508C6.59898 31.0508 6.59898 31.5306 6.45254 31.7521C6.3427 31.8998 6.56237 32.0843 6.70881 32.0843C6.89187 32.1213 7.03831 31.9736 7.03831 31.8259C7.11153 31.3092 6.59898 31.0508 6.59898 31.0508Z" fill="url(#paint11_linear_2020_3)"/>
<path opacity="0.9" d="M2.90071 30.7554C2.90071 30.7554 2.75427 32.4165 2.02207 33.2655C1.50952 33.893 1.8024 34.779 2.24173 34.9635C2.68105 35.1481 3.37665 34.779 3.70614 34.0406C4.40173 32.3057 2.90071 30.7554 2.90071 30.7554Z" fill="url(#paint12_linear_2020_3)"/>
<path d="M13.1882 29.5C13.1882 29.5 12.4926 31.641 11.5042 32.3054C10.8086 32.7853 10.955 33.8558 11.431 34.188C11.9069 34.5571 12.7489 34.2987 13.2615 33.5974C14.3232 32.0101 13.1882 29.5 13.1882 29.5Z" fill="url(#paint13_linear_2020_3)"/>
<path d="M17.7282 31.3086C17.7282 31.3086 17.2889 32.2683 16.7763 32.5267C16.4102 32.7113 16.4102 33.2281 16.6299 33.3757C16.8129 33.5603 17.2157 33.4496 17.4719 33.1543C18.0577 32.4898 17.7282 31.3086 17.7282 31.3086Z" fill="url(#paint14_linear_2020_3)"/>
<path d="M17.7644 35.3691C17.7644 35.3691 17.5814 36.2551 17.2153 36.5873C16.9591 36.8088 17.0689 37.2148 17.2519 37.3256C17.4349 37.4363 17.7644 37.2887 17.9109 36.9934C18.3136 36.292 17.7644 35.3691 17.7644 35.3691Z" fill="url(#paint15_linear_2020_3)"/>
<path d="M22.0119 30.5703C22.0119 30.5703 21.6092 32.7113 20.9502 33.5972C20.4743 34.2247 20.877 35.1106 21.3529 35.2952C21.8289 35.4429 22.4879 34.963 22.7441 34.1878C23.2567 32.416 22.0119 30.5703 22.0119 30.5703Z" fill="url(#paint16_linear_2020_3)"/>
<defs>
<linearGradient id="paint0_linear_2020_3" x1="10.1163" y1="20.2252" x2="12.2073" y2="20.2252" gradientUnits="userSpaceOnUse">
<stop stop-color="#C5874E"/>
<stop offset="1" stop-color="#F0C836"/>
</linearGradient>
<linearGradient id="paint1_linear_2020_3" x1="12.7358" y1="33.3929" x2="25.2976" y2="27.0216" gradientUnits="userSpaceOnUse">
<stop stop-color="#D1B42B"/>
<stop offset="1" stop-color="#F8E558"/>
</linearGradient>
<linearGradient id="paint2_linear_2020_3" x1="2.02521" y1="25.288" x2="24.2731" y2="25.288" gradientUnits="userSpaceOnUse">
<stop stop-color="#CC9C52"/>
<stop offset="0.9996" stop-color="#E8B934"/>
</linearGradient>
<linearGradient id="paint3_linear_2020_3" x1="-1.20452" y1="22.6444" x2="24.4032" y2="22.6444" gradientUnits="userSpaceOnUse">
<stop stop-color="#C5874E"/>
<stop offset="1" stop-color="#DD9434"/>
</linearGradient>
<linearGradient id="paint4_linear_2020_3" x1="-1.96119" y1="12.5821" x2="25.728" y2="12.5821" gradientUnits="userSpaceOnUse">
<stop stop-color="#B85040"/>
<stop offset="1" stop-color="#D57930"/>
</linearGradient>
<linearGradient id="paint5_linear_2020_3" x1="-0.653685" y1="12.2628" x2="12.6731" y2="6.12946" gradientUnits="userSpaceOnUse">
<stop stop-color="#A13331"/>
<stop offset="1" stop-color="#C52F27"/>
</linearGradient>
<linearGradient id="paint6_linear_2020_3" x1="16.2004" y1="36.0473" x2="18.1972" y2="36.0473" gradientUnits="userSpaceOnUse">
<stop stop-color="#D1B42B"/>
<stop offset="1" stop-color="#F8E558"/>
</linearGradient>
<linearGradient id="paint7_linear_2020_3" x1="10.6224" y1="36.5144" x2="11.9447" y2="36.5144" gradientUnits="userSpaceOnUse">
<stop stop-color="#CC9C52"/>
<stop offset="0.9996" stop-color="#EFCA34"/>
</linearGradient>
<linearGradient id="paint8_linear_2020_3" x1="5.64143" y1="31.4267" x2="7.20461" y2="31.4267" gradientUnits="userSpaceOnUse">
<stop stop-color="#CC9C52"/>
<stop offset="0.9996" stop-color="#EFCA34"/>
</linearGradient>
<linearGradient id="paint9_linear_2020_3" x1="4.83383" y1="35.3698" x2="7.54407" y2="35.3698" gradientUnits="userSpaceOnUse">
<stop stop-color="#CC9C52"/>
<stop offset="0.9996" stop-color="#EFCA34"/>
</linearGradient>
<linearGradient id="paint10_linear_2020_3" x1="6.46395" y1="35.6016" x2="7.50569" y2="35.7214" gradientUnits="userSpaceOnUse">
<stop stop-color="#E2D75E" stop-opacity="0.2"/>
<stop offset="0.2545" stop-color="#EBDE52" stop-opacity="0.3527"/>
<stop offset="0.6559" stop-color="#F5E742" stop-opacity="0.5935"/>
<stop offset="1" stop-color="#F8EA3C" stop-opacity="0.8"/>
</linearGradient>
<linearGradient id="paint11_linear_2020_3" x1="6.45445" y1="31.5382" x2="7.08979" y2="31.6113" gradientUnits="userSpaceOnUse">
<stop stop-color="#E2D75E" stop-opacity="0.2"/>
<stop offset="0.2545" stop-color="#EBDE52" stop-opacity="0.3527"/>
<stop offset="0.6559" stop-color="#F5E742" stop-opacity="0.5935"/>
<stop offset="1" stop-color="#F8EA3C" stop-opacity="0.8"/>
</linearGradient>
<linearGradient id="paint12_linear_2020_3" x1="2.12711" y1="32.6728" x2="3.97831" y2="33.4115" gradientUnits="userSpaceOnUse">
<stop stop-color="#E2D75E" stop-opacity="0"/>
<stop offset="1" stop-color="#F8E363"/>
</linearGradient>
<linearGradient id="paint13_linear_2020_3" x1="11.7602" y1="31.4662" x2="13.7405" y2="32.8926" gradientUnits="userSpaceOnUse">
<stop stop-color="#E2D75E" stop-opacity="0"/>
<stop offset="0.2545" stop-color="#EBDE52" stop-opacity="0.2036"/>
<stop offset="0.6559" stop-color="#F5E742" stop-opacity="0.5247"/>
<stop offset="1" stop-color="#F8EA3C" stop-opacity="0.8"/>
</linearGradient>
<linearGradient id="paint14_linear_2020_3" x1="16.9552" y1="32.1759" x2="17.7466" y2="32.8849" gradientUnits="userSpaceOnUse">
<stop stop-color="#E2D75E" stop-opacity="0.2"/>
<stop offset="0.2545" stop-color="#EBDE52" stop-opacity="0.3527"/>
<stop offset="0.6559" stop-color="#F5E742" stop-opacity="0.5935"/>
<stop offset="1" stop-color="#F8EA3C" stop-opacity="0.8"/>
</linearGradient>
<linearGradient id="paint15_linear_2020_3" x1="17.3123" y1="36.2265" x2="18.1059" y2="36.6567" gradientUnits="userSpaceOnUse">
<stop stop-color="#E2D75E" stop-opacity="0.2"/>
<stop offset="0.2116" stop-color="#E9DD55" stop-opacity="0.3269"/>
<stop offset="0.6361" stop-color="#F3E746" stop-opacity="0.5817"/>
<stop offset="1" stop-color="#F7EA40" stop-opacity="0.8"/>
</linearGradient>
<linearGradient id="paint16_linear_2020_3" x1="21.1685" y1="32.7545" x2="23.0121" y2="33.3384" gradientUnits="userSpaceOnUse">
<stop stop-color="#E2D75E" stop-opacity="0.2"/>
<stop offset="0.0259888" stop-color="#E3D862" stop-opacity="0.2208"/>
<stop offset="0.2948" stop-color="#EBE380" stop-opacity="0.4359"/>
<stop offset="0.5529" stop-color="#F1EB96" stop-opacity="0.6425"/>
<stop offset="0.7937" stop-color="#F5F0A3" stop-opacity="0.8352"/>
<stop offset="0.9996" stop-color="#F6F1A8"/>
</linearGradient>
</defs>
</svg>
