<svg width="207" height="70" viewBox="0 0 207 70" fill="none" xmlns="http://www.w3.org/2000/svg">
<g clip-path="url(#clip0_2171_2)">
<mask id="mask0_2171_2" style="mask-type:luminance" maskUnits="userSpaceOnUse" x="0" y="0" width="207" height="70">
<path d="M207 0H0V70H207V0Z" fill="white"/>
</mask>
<g mask="url(#mask0_2171_2)">
<path d="M61.2615 20.945L65.8243 26.6078C65.8914 26.7442 66.0927 26.7442 66.2269 26.6078L70.7225 20.945C70.7896 20.8768 70.8567 20.8768 70.9238 20.8768H74.8155C74.9497 20.8768 75.0839 21.0132 75.0839 21.1497V35.4772C75.0839 35.6136 74.9497 35.7501 74.8155 35.7501H70.4541C70.3199 35.7501 70.1857 35.6136 70.1857 35.4772V28.3817C70.1857 28.1088 69.9173 28.0405 69.716 28.2452L66.3611 32.8846H65.5559L62.2009 28.3134C62.0667 28.1088 61.7312 28.2452 61.7312 28.4499V35.4772C61.7312 35.6136 61.597 35.7501 61.4628 35.7501H57.1014C56.9672 35.7501 56.833 35.6136 56.833 35.4772V21.0815C56.833 20.945 56.9672 20.8086 57.1014 20.8086H60.9931C61.1944 20.8086 61.2615 20.8768 61.2615 20.945Z" fill="white"/>
<path d="M89.3088 27.6994L83.4041 35.6136C83.337 35.6819 83.2699 35.6819 83.2028 35.6819H78.7743C78.6401 35.6819 78.5059 35.5454 78.5059 35.409V21.0815C78.5059 20.945 78.6401 20.8086 78.7743 20.8086H83.1357C83.2699 20.8086 83.4041 20.945 83.4041 21.0815V28.6546C83.4041 28.8592 83.6725 28.9957 83.8738 28.791L89.7785 20.945C89.8456 20.8768 89.9127 20.8768 89.9798 20.8768H94.4083C94.5425 20.8768 94.6767 21.0132 94.6767 21.1497V35.4772C94.6767 35.6136 94.5425 35.7501 94.4083 35.7501H90.0469C89.9127 35.7501 89.7785 35.6136 89.7785 35.4772V27.8359C89.7785 27.6312 89.443 27.4947 89.3088 27.6994Z" fill="white"/>
<path d="M114.27 28.2457C114.27 29.2691 114.135 30.2925 113.8 31.2476C113.464 32.2028 113.062 33.0215 112.458 33.772C111.854 34.5225 111.116 35.0683 110.244 35.5459C109.371 35.9552 108.432 36.2281 107.291 36.2281C106.419 36.2281 105.547 36.0235 104.742 35.6823C103.936 35.3412 103.332 34.7954 102.863 34.1814H102.796V41.004C102.796 41.1404 102.661 41.2769 102.527 41.2769H98.1659C98.0317 41.2769 97.8975 41.1404 97.8975 41.004V21.2184C97.8975 21.0819 98.0317 20.9455 98.1659 20.9455H102.259C102.393 20.9455 102.527 21.0819 102.527 21.2184V22.7876H102.594C103.064 22.1736 103.668 21.696 104.473 21.2184C105.278 20.7408 106.218 20.5361 107.291 20.5361C108.365 20.5361 109.304 20.7408 110.177 21.1502C111.049 21.5595 111.787 22.1053 112.391 22.8558C112.995 23.6063 113.464 24.425 113.8 25.3802C114.135 26.1989 114.27 27.1541 114.27 28.2457ZM109.64 28.2457C109.64 27.7681 109.573 27.2905 109.438 26.8129C109.304 26.3354 109.103 25.926 108.767 25.5849C108.499 25.2437 108.096 24.9708 107.694 24.7662C107.291 24.5615 106.755 24.425 106.218 24.425C105.681 24.425 105.211 24.5615 104.742 24.7662C104.272 24.9708 103.936 25.2437 103.668 25.6531C103.332 25.9942 103.131 26.4036 102.997 26.8812C102.863 27.3587 102.729 27.8363 102.729 28.3139C102.729 28.7915 102.796 29.2691 102.997 29.7467C103.131 30.2242 103.4 30.6336 103.668 30.9747C104.003 31.3159 104.339 31.5888 104.742 31.8617C105.144 32.0663 105.681 32.2028 106.218 32.2028C106.755 32.2028 107.291 32.0663 107.694 31.8617C108.096 31.657 108.499 31.3841 108.767 30.9747C109.036 30.6336 109.237 30.2242 109.438 29.7467C109.573 29.1326 109.64 28.7233 109.64 28.2457Z" fill="white"/>
<path d="M126.683 20.945L131.246 26.6078C131.313 26.7442 131.515 26.7442 131.649 26.6078L136.144 20.945C136.211 20.8768 136.279 20.8768 136.346 20.8768H140.237C140.372 20.8768 140.506 21.0132 140.506 21.1497V35.4772C140.506 35.6136 140.372 35.7501 140.237 35.7501H135.876C135.742 35.7501 135.608 35.6136 135.608 35.4772V28.3817C135.608 28.1088 135.339 28.0405 135.138 28.2452L131.783 32.8846H130.978L127.623 28.3134C127.489 28.1088 127.153 28.2452 127.153 28.4499V35.4772C127.153 35.6136 127.019 35.7501 126.885 35.7501H122.523C122.389 35.7501 122.255 35.6136 122.255 35.4772V21.0815C122.255 20.945 122.389 20.8086 122.523 20.8086H126.415C126.549 20.8086 126.616 20.8768 126.683 20.945Z" fill="white"/>
<path d="M143.86 23.0602C143.793 22.992 143.793 22.7873 143.86 22.719C144.665 21.9686 145.605 21.4227 146.678 21.0134C147.819 20.604 148.96 20.3994 150.168 20.3994C151.375 20.3994 152.449 20.5358 153.321 20.8769C154.194 21.2181 154.865 21.6957 155.401 22.3097C155.938 22.9237 156.341 23.7424 156.542 24.7658C156.81 25.721 156.877 26.9491 156.877 28.2454V35.4773C156.877 35.6138 156.743 35.7502 156.609 35.7502H152.717C152.583 35.7502 152.449 35.6138 152.449 35.4773V34.1128H152.382C151.979 34.7268 151.442 35.2044 150.704 35.5456C149.966 35.8867 149.161 36.0231 148.222 36.0231C147.618 36.0231 147.014 35.9549 146.41 35.8185C145.806 35.682 145.202 35.4091 144.665 35.068C144.129 34.7268 143.726 34.2493 143.391 33.6352C143.055 33.0212 142.921 32.2707 142.921 31.452C142.921 30.3604 143.189 29.5417 143.793 28.8594C144.397 28.1771 145.135 27.6996 146.007 27.3584C146.947 27.0173 147.953 26.7444 149.027 26.6079C150.1 26.4715 151.241 26.4033 152.315 26.4033V26.1304C152.315 25.3799 152.046 24.8341 151.577 24.4929C151.04 24.1518 150.436 23.9471 149.698 23.9471C149.027 23.9471 148.356 24.0836 147.685 24.4247C147.148 24.6976 146.611 24.9705 146.209 25.3116C146.142 25.3799 145.94 25.3799 145.873 25.3116L143.86 23.0602ZM152.516 29.2005H151.912C151.375 29.2005 150.839 29.2005 150.302 29.2688C149.765 29.337 149.295 29.4052 148.893 29.5417C148.49 29.6781 148.155 29.8828 147.819 30.1557C147.551 30.4286 147.417 30.7697 147.417 31.2473C147.417 31.5202 147.484 31.7931 147.618 31.9978C147.752 32.2025 147.886 32.3389 148.088 32.4754C148.289 32.6118 148.49 32.6801 148.759 32.7483C149.027 32.8165 149.228 32.8165 149.497 32.8165C150.503 32.8165 151.241 32.5436 151.711 31.9978C152.248 31.452 152.516 30.7015 152.516 29.7463V29.2005Z" fill="white"/>
<path d="M170.498 25.4488C170.431 25.5852 170.23 25.5852 170.163 25.4488C169.894 25.1759 169.626 24.9712 169.223 24.7665C168.754 24.5618 168.284 24.4254 167.814 24.4254C167.277 24.4254 166.875 24.5618 166.405 24.7665C166.002 24.9712 165.667 25.2441 165.331 25.5852C165.063 25.9263 164.795 26.3357 164.66 26.8133C164.526 27.2909 164.392 27.7684 164.392 28.246C164.392 28.7918 164.459 29.2694 164.593 29.6788C164.728 30.1564 164.996 30.5657 165.264 30.9068C165.6 31.248 165.935 31.5209 166.338 31.7256C166.741 31.9302 167.21 31.9985 167.747 31.9985C168.217 31.9985 168.754 31.9302 169.223 31.7256C169.626 31.5891 169.961 31.3844 170.163 31.1115C170.297 30.9751 170.431 30.9751 170.498 31.1115L172.847 34.0453C172.914 34.1817 172.914 34.3182 172.847 34.3864C172.243 34.9322 171.572 35.3415 170.699 35.6145C169.76 35.9556 168.754 36.092 167.613 36.092C166.472 36.092 165.399 35.8874 164.392 35.5462C163.386 35.2051 162.513 34.6593 161.775 33.977C161.037 33.2948 160.433 32.476 160.031 31.4527C159.628 30.4975 159.427 29.4059 159.427 28.1096C159.427 26.8815 159.628 25.7899 160.031 24.8347C160.433 23.8796 161.037 23.0608 161.775 22.3104C162.513 21.6281 163.386 21.0823 164.392 20.7412C165.399 20.4 166.472 20.1953 167.613 20.1953C168.15 20.1953 168.686 20.2636 169.156 20.3318C169.693 20.4 170.163 20.5365 170.632 20.7412C171.102 20.8776 171.572 21.1505 171.974 21.3552L172.847 21.901C172.981 21.9692 172.981 22.1739 172.914 22.2421L170.498 25.4488Z" fill="white"/>
<path d="M189.219 28.4503C189.219 28.6549 189.219 28.8596 189.219 29.0643C189.219 29.269 189.219 29.4736 189.219 29.6101H178.618C178.685 30.0195 178.752 30.4288 178.953 30.7699C179.154 31.1111 179.423 31.384 179.758 31.6569C180.094 31.9298 180.429 32.0662 180.832 32.2709C181.235 32.4074 181.637 32.4756 182.107 32.4756C182.845 32.4756 183.516 32.3391 184.053 32.0662C184.522 31.7933 184.925 31.5204 185.193 31.1111C185.26 31.0428 185.395 30.9746 185.529 31.0428L188.481 32.9532C188.615 33.0214 188.615 33.2261 188.548 33.2943C187.877 34.1812 187.005 34.9317 185.999 35.4093C184.858 35.9551 183.583 36.228 182.107 36.228C181.033 36.228 179.96 36.0234 179.02 35.6822C178.014 35.3411 177.209 34.7953 176.471 34.1812C175.732 33.499 175.129 32.6803 174.726 31.7251C174.323 30.7699 174.122 29.6101 174.122 28.382C174.122 27.154 174.323 26.0623 174.726 25.1072C175.129 24.152 175.665 23.2651 176.403 22.5828C177.074 21.9005 177.947 21.3547 178.886 21.0136C179.825 20.6042 180.899 20.4678 181.973 20.4678C183.046 20.4678 184.053 20.6725 184.925 21.0136C185.797 21.3547 186.602 21.9005 187.273 22.5828C187.944 23.2651 188.414 24.152 188.817 25.1072C189.018 26.0623 189.219 27.154 189.219 28.4503ZM184.522 26.5399C184.657 26.5399 184.791 26.4035 184.791 26.267C184.724 25.5848 184.522 25.0389 184.053 24.5614C183.583 24.0156 182.845 23.7426 181.906 23.7426C181.436 23.7426 181.033 23.8109 180.631 23.9473C180.228 24.0838 179.893 24.2885 179.624 24.5614C179.356 24.8343 179.087 25.1072 178.953 25.4483C178.752 25.7894 178.685 26.1306 178.685 26.5399H184.522Z" fill="white"/>
<path d="M201.833 35.5454L199.015 27.29C198.948 27.0854 198.613 27.0854 198.545 27.29L195.526 35.5454C195.459 35.6136 195.392 35.6819 195.325 35.6819H190.628C190.427 35.6819 190.359 35.4772 190.427 35.3407L195.929 20.945C195.996 20.8768 196.063 20.8086 196.13 20.8086H201.565C201.699 20.8086 201.766 20.8768 201.766 20.945L206.933 35.3407C207 35.4772 206.866 35.6819 206.732 35.6819H202.035C201.968 35.6819 201.9 35.6136 201.833 35.5454Z" fill="white"/>
<path d="M58.3092 47.4857L57.504 46.9399C57.504 46.9399 57.5711 46.8035 57.6382 46.667C57.7053 46.5305 57.8395 46.3941 58.0408 46.2576C58.2421 46.1212 58.4434 45.9847 58.7789 45.8483C59.1144 45.7118 59.4499 45.6436 59.8525 45.6436C60.2551 45.6436 60.5906 45.7118 60.859 45.7801C61.1274 45.8483 61.3958 45.9847 61.5971 46.1894C61.7984 46.3259 61.9326 46.5305 61.9997 46.7352C62.0668 46.9399 62.1339 47.1446 62.1339 47.3493C62.1339 47.7586 61.9997 48.0998 61.7313 48.3727C61.4629 48.6456 61.1274 48.782 60.7248 48.8502V48.9185C60.9261 48.9185 61.1274 48.9867 61.3287 48.9867C61.53 49.0549 61.7313 49.1231 61.8655 49.2596C61.9997 49.396 62.1339 49.5325 62.2681 49.669C62.3352 49.8736 62.4023 50.0783 62.4023 50.283C62.4023 50.5559 62.3352 50.8288 62.201 51.0335C62.0668 51.2382 61.8655 51.4428 61.6642 51.6475C61.4629 51.784 61.1274 51.9204 60.859 51.9886C60.5235 52.0569 60.188 52.1251 59.7854 52.1251C59.3157 52.1251 58.9802 52.0569 58.6447 51.9886C58.3763 51.8522 58.1079 51.784 57.9066 51.5793C57.7053 51.4428 57.5711 51.3064 57.504 51.1699C57.4369 51.0335 57.3698 50.9652 57.3027 50.9652L58.0408 50.283C58.0408 50.283 58.1079 50.3512 58.175 50.4194C58.2421 50.4877 58.3763 50.6241 58.5105 50.6923C58.6447 50.8288 58.846 50.897 59.0473 50.9652C59.2486 51.0335 59.517 51.1017 59.7854 51.1017C60.2551 51.1017 60.5906 51.0335 60.7919 50.8288C61.0603 50.6241 61.1945 50.4194 61.1945 50.0783C61.1945 49.8054 61.0603 49.6007 60.859 49.396C60.5906 49.1914 60.2551 49.1231 59.7854 49.1231H58.9131V48.3044H59.7183C60.1209 48.3044 60.3893 48.2362 60.6577 48.0997C60.9261 47.9633 61.0603 47.6904 61.0603 47.4175C61.0603 47.1446 60.9261 46.9399 60.7248 46.667C60.5235 46.4623 60.188 46.3259 59.7183 46.3259C59.4499 46.3259 59.1815 46.3941 58.9802 46.4623C58.7789 46.5305 58.6447 46.667 58.5105 46.8035C58.4434 47.1446 58.3763 47.3493 58.3092 47.4857Z" fill="white"/>
<path d="M67.7705 48.0999C67.7705 47.6223 67.6362 47.2811 67.3678 47.0765C67.0994 46.8718 66.7639 46.7353 66.2942 46.7353C65.9587 46.7353 65.6232 46.8036 65.3548 46.94C65.0864 47.0765 64.818 47.2129 64.6167 47.4176L63.9458 46.6671C64.2142 46.3942 64.5497 46.1895 65.0194 45.9849C65.422 45.7802 65.8916 45.7119 66.4284 45.7119C66.7639 45.7119 67.0994 45.7802 67.4349 45.8484C67.7704 45.9166 67.9718 46.0531 68.1731 46.2578C68.3744 46.4624 68.5757 46.6671 68.7099 47.0082C68.8441 47.3494 68.9112 47.6223 68.9112 48.0316C68.9112 48.1681 68.9112 48.2363 68.9112 48.3728C68.9112 48.5092 68.9112 48.5774 68.9112 48.7139V50.6925C68.9112 50.8971 68.9112 51.17 68.9112 51.3747C68.9112 51.6476 68.9112 51.8523 68.9783 51.9887H67.9047C67.9047 51.8523 67.9047 51.7158 67.8376 51.5112C67.8376 51.3747 67.8376 51.2383 67.8376 51.0336C67.5692 51.3747 67.3008 51.6476 66.9653 51.8523C66.6298 51.9887 66.2272 52.1252 65.7575 52.1252C65.5562 52.1252 65.2878 52.1252 65.0194 52.057C64.751 51.9888 64.5496 51.8523 64.3483 51.7158C64.147 51.5794 63.9458 51.3747 63.8116 51.1018C63.6774 50.8289 63.6104 50.556 63.6104 50.2149C63.6104 49.7373 63.7445 49.3962 63.9458 49.1233C64.2142 48.8503 64.4826 48.6457 64.8852 48.5092C65.2878 48.3728 65.6904 48.3045 66.2272 48.2363C66.6969 48.1681 67.2337 48.1681 67.7705 48.1681V48.0999ZM67.5691 49.1233C67.2336 49.1233 66.8981 49.1233 66.5626 49.1915C66.2271 49.1915 65.9587 49.2597 65.6903 49.3279C65.4219 49.3962 65.2207 49.5326 65.0194 49.6691C64.8181 49.8055 64.7509 50.0102 64.7509 50.2831C64.7509 50.4878 64.8181 50.6242 64.8852 50.7607C64.9523 50.8971 65.0865 50.9654 65.1536 51.1018C65.2878 51.17 65.4219 51.2383 65.5561 51.3065C65.6903 51.3747 65.8917 51.3747 66.0259 51.3747C66.2943 51.3747 66.5627 51.3065 66.764 51.2383C66.9653 51.17 67.1665 51.0336 67.3007 50.8289C67.4349 50.6242 67.5691 50.4878 67.6362 50.2149C67.7033 50.0102 67.7705 49.7373 67.7705 49.5326V49.1233H67.5691Z" fill="white"/>
<path d="M71.9307 45.916L74.4134 48.9179L76.8289 45.916H77.8354V52.0563H76.6276V47.6216L74.4805 50.3507H74.145L71.9978 47.6216V52.0563H70.79V45.916H71.9307Z" fill="white"/>
<path d="M85.6187 48.8503C85.6187 48.9186 85.6187 48.9868 85.6187 49.055C85.6187 49.1233 85.6187 49.1915 85.6187 49.2597H80.7876C80.7876 49.5326 80.8547 49.8055 80.9889 50.0102C81.1231 50.2149 81.2573 50.4195 81.3915 50.6242C81.5928 50.8289 81.7941 50.9654 81.9954 51.0336C82.2637 51.17 82.465 51.17 82.7334 51.17C83.136 51.17 83.5386 51.1018 83.807 50.8971C84.0754 50.6925 84.3438 50.4878 84.478 50.2149L85.3503 50.8289C85.0148 51.3065 84.6122 51.6476 84.2096 51.8523C83.807 52.057 83.2702 52.1934 82.7334 52.1934C82.2638 52.1934 81.8612 52.1252 81.4586 51.9887C81.056 51.8523 80.7205 51.5794 80.4521 51.3065C80.1837 51.0336 79.9153 50.6925 79.7811 50.2831C79.6469 49.8737 79.5127 49.4644 79.5127 48.9868C79.5127 48.5092 79.5798 48.0999 79.7811 47.6905C79.9824 47.2811 80.1837 46.94 80.4521 46.6671C80.7205 46.3942 81.056 46.1213 81.4586 45.9849C81.8612 45.8484 82.2637 45.7119 82.6663 45.7119C83.136 45.7119 83.5386 45.7802 83.9412 45.9849C84.3438 46.1895 84.6122 46.3942 84.8806 46.6671C85.149 46.94 85.3503 47.2811 85.4845 47.6905C85.6187 48.0999 85.6187 48.441 85.6187 48.8503ZM84.478 48.441C84.478 47.8952 84.2767 47.4858 84.0083 47.1447C83.6728 46.8036 83.2702 46.6671 82.6663 46.6671C82.3979 46.6671 82.1295 46.7353 81.9283 46.8036C81.727 46.8718 81.5257 47.0082 81.3244 47.2129C81.1231 47.3494 80.9889 47.5541 80.9218 47.7587C80.7876 47.9634 80.7876 48.1681 80.7205 48.441H84.478Z" fill="white"/>
<path d="M88.5037 52.0563H87.2959V45.916H88.5037V48.3721H91.5902V45.916H92.798V52.0563H91.5902V49.3273H88.5037V52.0563Z" fill="white"/>
<path d="M98.5683 48.0999C98.5683 47.6223 98.4341 47.2811 98.1657 47.0765C97.8974 46.8718 97.5619 46.7353 97.0922 46.7353C96.7567 46.7353 96.4212 46.8036 96.1528 46.94C95.8844 47.0765 95.616 47.2129 95.4147 47.4176L94.7437 46.6671C95.0121 46.3942 95.3476 46.1895 95.8173 45.9849C96.2199 45.7802 96.6896 45.7119 97.2264 45.7119C97.5618 45.7119 97.8973 45.7802 98.2328 45.8484C98.5683 45.9166 98.7696 46.0531 98.9709 46.2578C99.1722 46.4624 99.3735 46.6671 99.5077 47.0082C99.6419 47.3494 99.709 47.6223 99.709 48.0316C99.709 48.1681 99.709 48.2363 99.709 48.3728C99.709 48.5092 99.709 48.5774 99.709 48.7139V50.6925C99.709 50.8971 99.709 51.17 99.709 51.3747C99.709 51.6476 99.709 51.8523 99.7761 51.9887H98.7025C98.7025 51.8523 98.7025 51.7158 98.6354 51.5112C98.6354 51.3747 98.6354 51.2383 98.6354 51.0336C98.367 51.3747 98.0986 51.6476 97.7631 51.8523C97.4277 51.9887 97.0251 52.1252 96.5554 52.1252C96.3541 52.1252 96.0857 52.1252 95.8173 52.057C95.5489 51.9888 95.3476 51.8523 95.1463 51.7158C94.945 51.5794 94.7437 51.3747 94.6095 51.1018C94.4753 50.8289 94.4082 50.556 94.4082 50.2149C94.4082 49.7373 94.5424 49.3962 94.7437 49.1233C95.0121 48.8503 95.2805 48.6457 95.6831 48.5092C96.0857 48.3728 96.4883 48.3045 97.0251 48.2363C97.4948 48.1681 98.0315 48.1681 98.5683 48.1681V48.0999ZM98.2999 49.1233C97.9644 49.1233 97.629 49.1233 97.2935 49.1915C96.958 49.1915 96.6896 49.2597 96.4212 49.3279C96.1528 49.3962 95.9515 49.5326 95.7502 49.6691C95.5489 49.8055 95.4818 50.0102 95.4818 50.2831C95.4818 50.4878 95.5489 50.6242 95.616 50.7607C95.6831 50.8971 95.8173 50.9654 95.8844 51.1018C96.0186 51.17 96.1528 51.2383 96.287 51.3065C96.4212 51.3747 96.6225 51.3747 96.7567 51.3747C97.0251 51.3747 97.2935 51.3065 97.4948 51.2383C97.6961 51.17 97.8974 51.0336 98.0316 50.8289C98.1657 50.6242 98.2999 50.4878 98.367 50.2149C98.4341 50.0102 98.5012 49.7373 98.5012 49.5326V49.1233H98.2999Z" fill="white"/>
<path d="M108.7 48.0999C108.7 47.6223 108.566 47.2811 108.298 47.0765C108.029 46.8718 107.694 46.7353 107.224 46.7353C106.889 46.7353 106.553 46.8036 106.285 46.94C106.016 47.0765 105.748 47.2129 105.547 47.4176L104.876 46.6671C105.144 46.3942 105.479 46.1895 105.949 45.9849C106.352 45.7802 106.821 45.7119 107.358 45.7119C107.694 45.7119 108.029 45.7802 108.365 45.8484C108.7 45.9166 108.901 46.0531 109.103 46.2578C109.304 46.4624 109.505 46.6671 109.64 47.0082C109.774 47.3494 109.841 47.6223 109.841 48.0316C109.841 48.1681 109.841 48.2363 109.841 48.3728C109.841 48.5092 109.841 48.5774 109.841 48.7139V50.6925C109.841 50.8971 109.841 51.17 109.841 51.3747C109.841 51.6476 109.841 51.8523 109.908 51.9887H108.834C108.834 51.8523 108.834 51.7158 108.767 51.5112C108.767 51.3747 108.767 51.2383 108.767 51.0336C108.499 51.3747 108.23 51.6476 107.895 51.8523C107.559 51.9887 107.157 52.1252 106.687 52.1252C106.486 52.1252 106.218 52.1252 105.949 52.057C105.681 51.9888 105.479 51.8523 105.278 51.7158C105.077 51.5794 104.876 51.3747 104.741 51.1018C104.607 50.8289 104.54 50.556 104.54 50.2149C104.54 49.7373 104.674 49.3962 104.876 49.1233C105.144 48.8503 105.412 48.6457 105.815 48.5092C106.218 48.3728 106.62 48.3045 107.157 48.2363C107.627 48.1681 108.163 48.1681 108.7 48.1681V48.0999ZM108.432 49.1233C108.096 49.1233 107.761 49.1233 107.425 49.1915C107.09 49.1915 106.821 49.2597 106.553 49.3279C106.285 49.3962 106.083 49.5326 105.882 49.6691C105.681 49.8055 105.614 50.0102 105.614 50.2831C105.614 50.4878 105.681 50.6242 105.748 50.7607C105.815 50.8971 105.949 50.9654 106.016 51.1018C106.15 51.17 106.285 51.2383 106.419 51.3065C106.553 51.3747 106.754 51.3747 106.889 51.3747C107.157 51.3747 107.425 51.3065 107.627 51.2383C107.828 51.17 108.029 51.0336 108.163 50.8289C108.298 50.6242 108.432 50.4878 108.499 50.2149C108.566 50.0102 108.633 49.7373 108.633 49.5326V49.1233H108.432Z" fill="white"/>
<path d="M111.787 52.0563V45.916H114.605C115.41 45.916 115.947 46.0524 116.35 46.3935C116.752 46.7347 116.954 47.0758 116.954 47.6216C116.954 47.8263 116.887 48.031 116.82 48.2356C116.752 48.3721 116.618 48.5086 116.551 48.645C116.484 48.7815 116.283 48.8497 116.149 48.9179C116.014 48.9861 115.813 49.0544 115.612 49.0544C115.813 49.0544 116.014 49.1226 116.216 49.1908C116.417 49.259 116.618 49.3273 116.752 49.4637C116.887 49.6002 117.021 49.7366 117.088 49.9413C117.155 50.146 117.222 50.3507 117.222 50.6236C117.222 51.1011 117.021 51.5105 116.618 51.7834C116.216 52.0563 115.612 52.261 114.807 52.261H111.787V52.0563ZM114.404 48.5768C114.807 48.5768 115.075 48.5086 115.343 48.3721C115.545 48.2356 115.679 48.031 115.679 47.6898C115.679 47.4852 115.612 47.3487 115.545 47.2123C115.478 47.0758 115.343 47.0076 115.142 46.9394C115.008 46.8711 114.807 46.8711 114.605 46.8029C114.404 46.8029 114.136 46.8029 113.867 46.8029H112.928V48.5768H114.404ZM112.995 51.1694H114.001C114.27 51.1694 114.538 51.1694 114.739 51.1694C115.008 51.1694 115.209 51.1011 115.343 51.1011C115.545 51.0329 115.679 50.9647 115.746 50.8282C115.88 50.6918 115.88 50.5553 115.88 50.2824C115.88 50.0777 115.813 49.8731 115.746 49.7366C115.679 49.6002 115.478 49.5319 115.343 49.4637C115.142 49.3955 114.941 49.3955 114.739 49.3273C114.538 49.259 114.203 49.3273 113.934 49.3273H112.928V51.1694H112.995Z" fill="white"/>
<path d="M117.961 45.916H123.261V46.8711H121.114V52.0563H119.907V46.8711H117.894V45.916H117.961Z" fill="white"/>
<path d="M130.642 48.9868C130.642 49.4644 130.575 49.8737 130.373 50.2831C130.239 50.6925 129.971 51.0336 129.702 51.3065C129.434 51.5794 129.031 51.8523 128.696 51.9887C128.293 52.1252 127.891 52.2617 127.421 52.2617C126.951 52.2617 126.549 52.1934 126.146 51.9887C125.743 51.8523 125.408 51.5794 125.14 51.3065C124.871 51.0336 124.603 50.6925 124.469 50.2831C124.334 49.8737 124.2 49.4644 124.2 48.9868C124.2 48.5092 124.267 48.0999 124.469 47.6905C124.603 47.2811 124.871 46.94 125.14 46.6671C125.408 46.3942 125.811 46.1213 126.146 45.9849C126.549 45.8484 126.951 45.7119 127.421 45.7119C127.891 45.7119 128.293 45.7802 128.696 45.9849C129.098 46.1213 129.434 46.3942 129.702 46.6671C129.971 46.94 130.239 47.2811 130.373 47.6905C130.575 48.0999 130.642 48.5092 130.642 48.9868ZM129.434 48.9868C129.434 48.6457 129.367 48.3728 129.3 48.0999C129.233 47.827 129.031 47.6223 128.897 47.4176C128.696 47.2129 128.495 47.0765 128.226 46.94C127.958 46.8036 127.689 46.7353 127.354 46.7353C127.018 46.7353 126.75 46.8036 126.482 46.94C126.213 47.0765 126.012 47.2129 125.811 47.4176C125.609 47.6223 125.475 47.827 125.408 48.0999C125.341 48.3728 125.274 48.6457 125.274 48.9868C125.274 49.2597 125.341 49.6008 125.408 49.8737C125.475 50.1466 125.609 50.3513 125.811 50.556C126.012 50.7607 126.213 50.8971 126.482 51.0336C126.75 51.17 127.018 51.2383 127.354 51.2383C127.689 51.2383 127.958 51.17 128.226 51.0336C128.495 50.8971 128.696 50.7607 128.897 50.556C129.098 50.3513 129.233 50.1466 129.3 49.8737C129.367 49.6008 129.434 49.3279 129.434 48.9868Z" fill="white"/>
<path d="M133.393 45.916L135.875 48.9179L138.291 45.916H139.297V52.0563H138.09V47.6216L135.942 50.3507H135.607L133.46 47.6216V52.0563H132.252V45.916H133.393Z" fill="white"/>
<path d="M145.135 48.0989C145.135 47.6213 145.001 47.2801 144.732 47.0755C144.464 46.8708 144.128 46.7343 143.659 46.7343C143.323 46.7343 142.988 46.8026 142.719 46.939C142.451 47.0755 142.182 47.2119 141.981 47.4166L141.31 46.6661C141.578 46.3932 141.914 46.1885 142.384 45.9839C142.786 45.7792 143.256 45.7109 143.793 45.7109C144.128 45.7109 144.464 45.7792 144.799 45.8474C145.135 45.9156 145.336 46.0521 145.537 46.2568C145.739 46.4614 145.94 46.6661 146.074 47.0072C146.208 47.3484 146.275 47.6213 146.275 48.0306C146.275 48.1671 146.275 48.2353 146.275 48.3718C146.275 48.5082 146.275 48.5764 146.275 48.7129V50.6915C146.275 50.8961 146.275 51.169 146.275 51.3737C146.275 51.6466 146.275 51.8513 146.343 51.9877H145.269C145.269 51.8513 145.269 51.7148 145.202 51.5102C145.202 51.3737 145.202 51.2373 145.202 51.0326C144.933 51.3737 144.665 51.6466 144.33 51.8513C143.994 51.9877 143.591 52.1242 143.122 52.1242C142.92 52.1242 142.652 52.1242 142.384 52.056C142.115 51.9878 141.914 51.8513 141.713 51.7148C141.511 51.5784 141.31 51.3737 141.176 51.1008C141.042 50.8279 140.975 50.555 140.975 50.2139C140.975 49.7363 141.109 49.3952 141.31 49.1223C141.578 48.8493 141.847 48.6447 142.249 48.5082C142.652 48.3718 143.055 48.3035 143.591 48.2353C144.061 48.1671 144.598 48.1671 145.135 48.1671V48.0989ZM144.933 49.1223C144.598 49.1223 144.262 49.1223 143.927 49.1905C143.591 49.1905 143.323 49.2587 143.055 49.3269C142.786 49.3952 142.585 49.5316 142.384 49.6681C142.182 49.8045 142.115 50.0092 142.115 50.2821C142.115 50.4868 142.182 50.6232 142.249 50.7597C142.317 50.8961 142.451 50.9644 142.518 51.1008C142.652 51.169 142.786 51.2373 142.92 51.3055C143.055 51.3737 143.256 51.3737 143.39 51.3737C143.659 51.3737 143.927 51.3055 144.128 51.2373C144.33 51.169 144.531 51.0326 144.665 50.8279C144.799 50.6232 144.933 50.4868 145.001 50.2139C145.068 50.0092 145.135 49.7363 145.135 49.5316V49.1223H144.933Z" fill="white"/>
<path d="M152.65 47.4858C152.516 47.2811 152.315 47.0765 152.046 46.94C151.778 46.8036 151.509 46.7353 151.241 46.7353C150.905 46.7353 150.637 46.8036 150.369 46.94C150.1 47.0765 149.899 47.2129 149.698 47.4176C149.496 47.6223 149.362 47.827 149.295 48.0999C149.228 48.3728 149.161 48.6457 149.161 48.9868C149.161 49.3279 149.228 49.6008 149.295 49.8737C149.362 50.1466 149.564 50.3513 149.698 50.556C149.832 50.7607 150.1 50.8971 150.369 51.0336C150.637 51.17 150.905 51.2383 151.241 51.2383C151.576 51.2383 151.845 51.17 152.113 51.0336C152.382 50.8971 152.583 50.7607 152.717 50.4878L153.522 51.2383C153.254 51.5112 152.918 51.7841 152.583 51.9887C152.247 52.1934 151.778 52.2617 151.241 52.2617C150.771 52.2617 150.302 52.1934 149.899 51.9887C149.496 51.8523 149.161 51.5794 148.893 51.3065C148.624 51.0336 148.356 50.6925 148.222 50.2831C148.087 49.8737 147.953 49.4644 147.953 48.9868C147.953 48.5092 148.02 48.0999 148.222 47.6905C148.356 47.2811 148.624 46.94 148.893 46.6671C149.161 46.3942 149.496 46.1213 149.899 45.9849C150.302 45.8484 150.771 45.7119 151.241 45.7119C151.644 45.7119 152.046 45.7802 152.516 45.9849C152.918 46.1895 153.254 46.3942 153.522 46.7353L152.65 47.4858Z" fill="white"/>
<path d="M160.367 48.8493C160.367 48.9176 160.367 48.9858 160.367 49.054C160.367 49.1223 160.367 49.1905 160.367 49.2587H155.536C155.536 49.5316 155.603 49.8045 155.737 50.0092C155.871 50.2139 156.005 50.4185 156.14 50.6232C156.341 50.8279 156.542 50.9644 156.743 51.0326C157.012 51.169 157.213 51.169 157.481 51.169C157.884 51.169 158.287 51.1008 158.555 50.8961C158.823 50.6915 159.092 50.4868 159.226 50.2139L160.098 50.8279C159.763 51.3055 159.36 51.6466 158.958 51.8513C158.555 52.056 158.018 52.1924 157.481 52.1924C157.012 52.1924 156.609 52.1242 156.207 51.9877C155.804 51.8513 155.469 51.5784 155.2 51.3055C154.932 51.0326 154.663 50.6915 154.529 50.2821C154.395 49.8727 154.261 49.4634 154.261 48.9858C154.261 48.5082 154.328 48.0989 154.529 47.6895C154.73 47.2801 154.932 46.939 155.2 46.6661C155.469 46.3932 155.804 46.1203 156.207 45.9839C156.609 45.8474 157.012 45.7109 157.414 45.7109C157.884 45.7109 158.287 45.7792 158.689 45.9839C159.092 46.1885 159.36 46.3932 159.629 46.6661C159.897 46.939 160.098 47.2801 160.233 47.6895C160.367 48.0989 160.367 48.44 160.367 48.8493ZM159.226 48.44C159.226 47.8942 159.025 47.4848 158.756 47.1437C158.421 46.8026 158.018 46.6661 157.414 46.6661C157.146 46.6661 156.878 46.7343 156.676 46.8026C156.475 46.8708 156.274 47.0072 156.072 47.2119C155.871 47.3484 155.737 47.5531 155.67 47.7577C155.536 47.9624 155.536 48.1671 155.469 48.44H159.226Z" fill="white"/>
<path d="M166.205 52.0563L164.393 47.3487L162.514 52.0563H161.239L163.789 45.916H164.997L167.412 52.0563H166.205Z" fill="white"/>
<path d="M19.1238 37.0471C18.7883 36.7059 18.587 36.1601 18.4528 35.6826C18.2515 36.2284 18.0502 36.8424 17.916 37.4564C17.916 37.7976 17.916 38.1387 18.0502 38.4798C18.2515 39.1621 18.6541 39.9808 19.3251 40.3219C19.6606 40.5266 20.1974 40.7995 20.6 40.6631C21.0026 40.5266 22.009 39.9808 21.7407 39.3668C21.3381 38.3434 19.8619 37.8658 19.1238 37.0471Z" fill="url(#paint0_linear_2171_2)"/>
<path d="M23.4848 52.1925C23.4177 53.6935 23.8203 55.3992 24.5584 57.2413C24.4242 54.9898 24.8268 52.6701 26.9068 52.3972C28.8527 52.1243 29.1882 53.4888 29.054 55.3309C28.9198 56.8319 28.1817 57.2413 28.0475 59.4927C27.9133 61.4713 28.8527 62.904 30.3289 62.904C31.6708 62.904 32.476 60.7208 32.2076 59.0834C32.0063 57.7871 31.1341 56.8319 31.067 55.7403C30.9328 53.9664 31.9392 53.0113 34.0193 52.8748C35.831 52.7383 35.8981 54.5804 35.6297 56.7637C35.2942 58.8787 34.0193 60.1068 34.7574 63.3816C35.3613 65.906 36.9717 66.6565 38.1794 66.7247C39.7898 66.7929 42.1383 65.7013 41.7357 61.4031C40.5279 56.9684 40.5279 56.0814 39.924 45.5064C39.8569 44.5512 39.8569 43.6643 39.7898 42.7773C35.3613 44.8241 23.7532 46.3933 23.4848 52.1925Z" fill="url(#paint1_linear_2171_2)"/>
<path d="M31.3355 49.8735C34.422 49.1912 37.2402 47.6903 38.5151 46.1211C39.0518 45.507 39.5215 44.893 39.857 44.0743C39.5215 37.7975 39.3873 33.8404 39.3202 31.7936V30.702C36.435 29.6786 35.6298 31.5207 31.2684 32.6805C28.5844 33.431 26.5044 33.9768 24.8269 34.7955C25.4308 35.8871 25.8334 37.1152 25.6321 38.3433C25.0953 41.4135 22.0087 42.778 19.2577 41.7546C18.117 41.3452 17.3789 40.663 16.9092 39.9125C11.6755 41.6864 3.35525 43.5967 3.08686 48.509C2.95266 50.9651 4.09334 53.2848 5.90501 55.3998C5.77081 54.7176 5.70371 53.8988 5.70371 52.6708C5.63661 51.5109 5.70371 50.4193 7.11279 50.2829C9.32705 50.1464 7.44828 55.6045 11.6084 55.8774C14.7621 55.8774 12.5478 50.8287 16.2382 50.8287C17.8486 50.8287 18.3183 51.6474 18.4525 53.2166C18.5867 55.1269 17.1105 56.6279 17.1105 59.2205C17.1105 61.8131 18.4525 64.9515 21.4048 64.6786C24.7598 64.4057 25.0282 60.585 24.6927 58.1289C24.4914 56.6279 24.4914 54.9222 25.0953 53.7624C25.7663 52.1932 27.3766 50.7604 31.3355 49.8735Z" fill="url(#paint2_linear_2171_2)"/>
<path d="M14.4265 41.2764C15.6342 41.0717 16.7078 40.9353 17.7814 40.9353C14.1581 37.9333 18.3182 31.1789 20.935 28.3817C21.0021 28.3134 21.0692 28.177 21.2034 28.1088C21.3376 28.0405 21.4718 28.0405 21.4718 28.177C21.4718 28.2452 21.4718 28.3134 21.4718 28.3817C21.606 30.7696 22.8809 31.9294 24.2229 33.7033C25.1623 34.9314 26.0346 36.7052 25.6991 38.3427C25.4307 39.7754 24.5584 40.867 23.4848 41.4811C26.5043 42.0269 29.725 42.6409 34.0193 42.368C36.2336 42.2316 38.1795 40.9353 39.7227 39.0249C39.5885 35.5454 39.5214 33.0893 39.4543 31.6565V21.2861C37.1059 20.1945 34.6903 19.5805 32.2748 19.3076L33.5496 20.6039C34.7574 21.832 34.7574 23.8105 33.5496 24.9704C32.9457 25.5844 32.2077 25.8573 31.4025 25.8573C30.5973 25.8573 29.8592 25.5162 29.2553 24.9704L23.9545 19.5123C19.9957 20.0581 16.4394 21.0132 13.42 21.832C8.79015 23.06 5.50231 24.0152 2.95255 25.7208V27.3583C2.95255 27.3583 2.81835 38.2062 2.28156 44.6195C1.87897 49.1224 1.61057 52.3973 0.805387 56.2861C-0.0668982 60.4479 -1.14048 65.3602 2.81835 65.9742C6.71009 66.5883 7.24688 62.9723 6.77719 59.4928C6.37459 56.559 5.7707 56.4908 5.63651 52.6702C5.63651 52.1926 5.63651 51.715 5.7036 51.3056V51.2374C6.44169 48.8495 8.25336 42.5045 14.4265 41.2764Z" fill="url(#paint3_linear_2171_2)"/>
<path d="M15.2315 29.4734C16.9761 29.1323 18.4522 29.2687 19.8613 29.6781C20.1968 29.2005 20.5994 28.7912 20.9349 28.3818C21.002 28.3136 21.0691 28.1771 21.2033 28.1089C21.3375 28.0407 21.4717 28.0407 21.4717 28.1771C21.4717 28.2454 21.4717 28.3136 21.4717 28.3818C21.5388 29.2005 21.673 29.8146 21.9414 30.4286C24.9608 31.7931 27.9132 33.9081 33.0798 33.6352C35.3612 33.4988 37.5754 32.5436 39.4542 31.0426V20.9452C39.4542 19.8535 39.0516 18.7619 38.2464 18.0114L28.3158 7.8457C22.5453 7.8457 16.8419 9.34667 12.4804 10.5748C8.45451 11.6664 5.36796 12.5533 2.9524 13.8496V27.3584C2.9524 27.3584 2.8853 34.2493 2.5498 40.2532C5.56925 38.684 7.98481 30.9062 15.2315 29.4734ZM21.0691 12.2804C22.2769 11.0524 24.1556 11.0524 25.3634 12.2804L33.4824 20.5358C34.6902 21.7639 34.6902 23.7424 33.4824 24.9023C32.8785 25.5163 32.1404 25.7892 31.3352 25.7892C30.53 25.7892 29.7919 25.4481 29.1881 24.9023L21.0691 16.6469C19.8613 15.4871 19.8613 13.5085 21.0691 12.2804Z" fill="url(#paint4_linear_2171_2)"/>
<path d="M38.2464 18.0117L27.8461 7.43665C27.108 6.68616 26.0344 6.20858 24.9609 6.20858H21.1362V3.1384C21.2033 1.36452 19.7942 0 18.1168 0H10.0649C8.38744 0 7.04546 1.36452 7.04546 3.07018V6.14035C4.8312 6.14035 3.01953 7.98246 3.01953 10.3021V27.2904C3.01953 27.2904 3.01953 27.6316 3.01953 28.1092C6.97836 28.9961 8.85713 18.7622 17.3116 17.0565C18.9891 16.7154 20.4652 16.8519 21.8072 17.193L21.2033 16.5789C19.9955 15.3509 19.9955 13.3723 21.2033 12.2125C22.4111 10.9844 24.2899 10.9844 25.4977 12.2125L33.6166 20.4678C33.8179 20.6725 34.0192 20.9454 34.1534 21.2183C34.4889 21.2183 34.8244 21.2183 35.1599 21.2183C36.569 21.1501 38.1122 20.8772 39.5213 20.4678C39.32 19.6491 38.9174 18.694 38.2464 18.0117Z" fill="url(#paint5_linear_2171_2)"/>
<path d="M30.9325 64.8828C29.926 64.8828 29.0537 67.066 29.0537 68.0894C29.0537 69.1128 29.8589 69.9997 30.8654 69.9997C31.8719 69.9997 32.6771 69.181 32.7442 68.1576C32.7442 67.1342 31.939 64.8828 30.9325 64.8828Z" fill="url(#paint6_linear_2171_2)"/>
<path d="M20.1301 66.9297C19.4591 66.9297 18.8552 67.7484 18.7881 68.4307C18.7881 69.1129 19.2578 69.727 19.9288 69.727C20.5998 69.727 21.1365 69.2494 21.2036 68.5671C21.2707 67.8167 20.8011 66.9297 20.1301 66.9297Z" fill="url(#paint7_linear_2171_2)"/>
<path d="M11.1386 60.5163C11.9438 60.5163 12.5476 60.0387 12.6147 59.3564C12.6147 58.7424 12.0109 57.3096 11.2057 57.3096C10.4005 57.3096 9.72949 58.6742 9.72949 59.2882C9.72949 59.9705 10.3334 60.448 11.1386 60.5163Z" fill="url(#paint8_linear_2171_2)"/>
<path d="M10.8027 62.7002C9.46071 62.7002 8.25293 65.634 8.25293 67.0667C8.25293 68.4995 9.32651 69.5911 10.7356 69.6593C12.0776 69.6593 13.2182 68.5677 13.2182 67.1349C13.2182 65.7022 12.1447 62.7685 10.8027 62.7002Z" fill="url(#paint9_linear_2171_2)"/>
<path d="M11.7424 64.4736C11.7424 64.4736 11.6753 66.5203 11.2056 67.4755C10.8701 68.0895 11.474 68.84 11.9437 68.9083C12.4804 68.9765 12.9501 68.4307 13.0172 67.7484C13.2856 65.5652 11.7424 64.4736 11.7424 64.4736Z" fill="url(#paint10_linear_2171_2)"/>
<path d="M11.4742 58.1973C11.4742 58.1973 11.4742 59.0842 11.2058 59.4936C11.0045 59.7665 11.4071 60.1076 11.6755 60.1076C12.011 60.1759 12.2794 59.903 12.2794 59.63C12.4136 58.6749 11.4742 58.1973 11.4742 58.1973Z" fill="url(#paint11_linear_2171_2)"/>
<path opacity="0.9" d="M4.69698 57.6514C4.69698 57.6514 4.42859 60.7216 3.08661 62.2908C2.14722 63.4506 2.68401 65.0881 3.4892 65.4292C4.29439 65.7703 5.56927 65.0881 6.17316 63.7235C7.44803 60.5169 4.69698 57.6514 4.69698 57.6514Z" fill="url(#paint12_linear_2171_2)"/>
<path d="M23.5514 55.3311C23.5514 55.3311 22.2765 59.2882 20.4649 60.5163C19.19 61.4032 19.4584 63.3818 20.3307 63.9958C21.203 64.6781 22.7462 64.2005 23.6856 62.9042C25.6315 59.9705 23.5514 55.3311 23.5514 55.3311Z" fill="url(#paint13_linear_2171_2)"/>
<path d="M31.8717 58.6748C31.8717 58.6748 31.0665 60.4486 30.1271 60.9262C29.4561 61.2674 29.4561 62.2225 29.8587 62.4954C30.1942 62.8366 30.9323 62.6319 31.402 62.0861C32.4756 60.858 31.8717 58.6748 31.8717 58.6748Z" fill="url(#paint14_linear_2171_2)"/>
<path d="M31.9392 66.1797C31.9392 66.1797 31.6037 67.8172 30.9327 68.4312C30.4631 68.8405 30.6644 69.591 30.9998 69.7957C31.3353 70.0004 31.9392 69.7275 32.2076 69.1817C32.9457 67.8854 31.9392 66.1797 31.9392 66.1797Z" fill="url(#paint15_linear_2171_2)"/>
<path d="M39.7227 57.3096C39.7227 57.3096 38.9846 61.2667 37.7768 62.9042C36.9045 64.064 37.6426 65.7014 38.5149 66.0426C39.3872 66.3155 40.595 65.4285 41.0647 63.9958C42.0041 60.7209 39.7227 57.3096 39.7227 57.3096Z" fill="url(#paint16_linear_2171_2)"/>
</g>
</g>
<defs>
<linearGradient id="paint0_linear_2171_2" x1="17.9216" y1="38.189" x2="21.7539" y2="38.189" gradientUnits="userSpaceOnUse">
<stop stop-color="#C5874E"/>
<stop offset="1" stop-color="#F0C836"/>
</linearGradient>
<linearGradient id="paint1_linear_2171_2" x1="22.7222" y1="62.5251" x2="45.8242" y2="50.906" gradientUnits="userSpaceOnUse">
<stop stop-color="#D1B42B"/>
<stop offset="1" stop-color="#F8E558"/>
</linearGradient>
<linearGradient id="paint2_linear_2171_2" x1="3.09196" y1="47.5466" x2="43.8676" y2="47.5466" gradientUnits="userSpaceOnUse">
<stop stop-color="#CC9C52"/>
<stop offset="0.9996" stop-color="#E8B934"/>
</linearGradient>
<linearGradient id="paint3_linear_2171_2" x1="-2.82748" y1="42.66" x2="44.1059" y2="42.66" gradientUnits="userSpaceOnUse">
<stop stop-color="#C5874E"/>
<stop offset="1" stop-color="#DD9434"/>
</linearGradient>
<linearGradient id="paint4_linear_2171_2" x1="-4.21443" y1="24.0626" x2="46.5339" y2="24.0626" gradientUnits="userSpaceOnUse">
<stop stop-color="#B85040"/>
<stop offset="1" stop-color="#D57930"/>
</linearGradient>
<linearGradient id="paint5_linear_2171_2" x1="-1.845" y1="22.6651" x2="22.6516" y2="11.4856" gradientUnits="userSpaceOnUse">
<stop stop-color="#A13331"/>
<stop offset="1" stop-color="#C52F27"/>
</linearGradient>
<linearGradient id="paint6_linear_2171_2" x1="29.071" y1="67.4321" x2="32.7307" y2="67.4321" gradientUnits="userSpaceOnUse">
<stop stop-color="#D1B42B"/>
<stop offset="1" stop-color="#F8E558"/>
</linearGradient>
<linearGradient id="paint7_linear_2171_2" x1="18.8487" y1="68.2956" x2="21.2722" y2="68.2956" gradientUnits="userSpaceOnUse">
<stop stop-color="#CC9C52"/>
<stop offset="0.9996" stop-color="#EFCA34"/>
</linearGradient>
<linearGradient id="paint8_linear_2171_2" x1="9.72023" y1="58.8924" x2="12.5852" y2="58.8924" gradientUnits="userSpaceOnUse">
<stop stop-color="#CC9C52"/>
<stop offset="0.9996" stop-color="#EFCA34"/>
</linearGradient>
<linearGradient id="paint9_linear_2171_2" x1="8.24011" y1="66.1804" x2="13.2074" y2="66.1804" gradientUnits="userSpaceOnUse">
<stop stop-color="#CC9C52"/>
<stop offset="0.9996" stop-color="#EFCA34"/>
</linearGradient>
<linearGradient id="paint10_linear_2171_2" x1="11.2276" y1="66.6081" x2="13.1373" y2="66.8259" gradientUnits="userSpaceOnUse">
<stop stop-color="#E2D75E" stop-opacity="0.2"/>
<stop offset="0.2545" stop-color="#EBDE52" stop-opacity="0.3527"/>
<stop offset="0.6559" stop-color="#F5E742" stop-opacity="0.5935"/>
<stop offset="1" stop-color="#F8EA3C" stop-opacity="0.8"/>
</linearGradient>
<linearGradient id="paint11_linear_2171_2" x1="11.2093" y1="59.0982" x2="12.374" y2="59.2311" gradientUnits="userSpaceOnUse">
<stop stop-color="#E2D75E" stop-opacity="0.2"/>
<stop offset="0.2545" stop-color="#EBDE52" stop-opacity="0.3527"/>
<stop offset="0.6559" stop-color="#F5E742" stop-opacity="0.5935"/>
<stop offset="1" stop-color="#F8EA3C" stop-opacity="0.8"/>
</linearGradient>
<linearGradient id="paint12_linear_2171_2" x1="3.27913" y1="61.1953" x2="6.67978" y2="62.541" gradientUnits="userSpaceOnUse">
<stop stop-color="#E2D75E" stop-opacity="0"/>
<stop offset="1" stop-color="#F8E363"/>
</linearGradient>
<linearGradient id="paint13_linear_2171_2" x1="20.9341" y1="58.9652" x2="24.5844" y2="61.5724" gradientUnits="userSpaceOnUse">
<stop stop-color="#E2D75E" stop-opacity="0"/>
<stop offset="0.2545" stop-color="#EBDE52" stop-opacity="0.2036"/>
<stop offset="0.6559" stop-color="#F5E742" stop-opacity="0.5247"/>
<stop offset="1" stop-color="#F8EA3C" stop-opacity="0.8"/>
</linearGradient>
<linearGradient id="paint14_linear_2171_2" x1="30.4549" y1="60.2779" x2="31.9163" y2="61.5761" gradientUnits="userSpaceOnUse">
<stop stop-color="#E2D75E" stop-opacity="0.2"/>
<stop offset="0.2545" stop-color="#EBDE52" stop-opacity="0.3527"/>
<stop offset="0.6559" stop-color="#F5E742" stop-opacity="0.5935"/>
<stop offset="1" stop-color="#F8EA3C" stop-opacity="0.8"/>
</linearGradient>
<linearGradient id="paint15_linear_2171_2" x1="31.1105" y1="67.7644" x2="32.5706" y2="68.5491" gradientUnits="userSpaceOnUse">
<stop stop-color="#E2D75E" stop-opacity="0.2"/>
<stop offset="0.2116" stop-color="#E9DD55" stop-opacity="0.3269"/>
<stop offset="0.6361" stop-color="#F3E746" stop-opacity="0.5817"/>
<stop offset="1" stop-color="#F7EA40" stop-opacity="0.8"/>
</linearGradient>
<linearGradient id="paint16_linear_2171_2" x1="38.1768" y1="61.3465" x2="41.5609" y2="62.4094" gradientUnits="userSpaceOnUse">
<stop stop-color="#E2D75E" stop-opacity="0.2"/>
<stop offset="0.0259888" stop-color="#E3D862" stop-opacity="0.2208"/>
<stop offset="0.2948" stop-color="#EBE380" stop-opacity="0.4359"/>
<stop offset="0.5529" stop-color="#F1EB96" stop-opacity="0.6425"/>
<stop offset="0.7937" stop-color="#F5F0A3" stop-opacity="0.8352"/>
<stop offset="0.9996" stop-color="#F6F1A8"/>
</linearGradient>
<clipPath id="clip0_2171_2">
<rect width="207" height="70" fill="white"/>
</clipPath>
</defs>
</svg>
