<?xml version="1.0" encoding="utf-8"?><svg viewBox="0 0 64 71" xmlns="http://www.w3.org/2000/svg" xmlns:xlink="http://www.w3.org/1999/xlink"><style>:root>svg{display:none}:root>svg:target{display:block}</style><svg viewBox="0 0 11 20" id="arrow" xmlns="http://www.w3.org/2000/svg"><path d="m2 2 7 8-7 8"/></svg><svg viewBox="0 0 24 24" id="call" xmlns="http://www.w3.org/2000/svg"><path d="M15.05 5A5 5 0 0 1 19 8.95M15.05 1A9 9 0 0 1 23 8.94m-1 7.98v3a1.998 1.998 0 0 1-2.18 2 19.791 19.791 0 0 1-8.63-3.07 19.5 19.5 0 0 1-6-6 19.79 19.79 0 0 1-3.07-8.67A2 2 0 0 1 4.11 2h3a2 2 0 0 1 2 1.72c.127.96.362 1.903.7 2.81a2 2 0 0 1-.45 2.11L8.09 9.91a16.001 16.001 0 0 0 6 6l1.27-1.27a2 2 0 0 1 2.11-.45c.908.339 1.85.573 2.81.7A2 2 0 0 1 22 16.92Z"/></svg><svg viewBox="0 0 24 21" id="cloud" xmlns="http://www.w3.org/2000/svg"><path d="m8 15.5 4 4 4-4m-4-5v9"/><path d="M20.88 16.59A5 5 0 0 0 18 7.5h-1.26A8 8 0 1 0 3 14.79"/></svg><svg viewBox="0 0 24 24" id="dfg" xmlns="http://www.w3.org/2000/svg"><path d="M15.05 5A5 5 0 0 1 19 8.95M15.05 1A9 9 0 0 1 23 8.94m-1 7.98v3a1.998 1.998 0 0 1-2.18 2 19.791 19.791 0 0 1-8.63-3.07 19.5 19.5 0 0 1-6-6 19.79 19.79 0 0 1-3.07-8.67A2 2 0 0 1 4.11 2h3a2 2 0 0 1 2 1.72c.127.96.362 1.903.7 2.81a2 2 0 0 1-.45 2.11L8.09 9.91a16.001 16.001 0 0 0 6 6l1.27-1.27a2 2 0 0 1 2.11-.45c.908.339 1.85.573 2.81.7A2 2 0 0 1 22 16.92Z"/></svg><svg viewBox="0 0 48 48" id="it" xmlns="http://www.w3.org/2000/svg"><g clip-path="url(#ea)"><path d="M27.48 12.55A3.488 3.488 0 0 0 24 9.063a3.488 3.488 0 0 0-3.392 4.274h6.784c.059-.255.088-.518.088-.787Z"/><path d="M34.551 10.848a1.37 1.37 0 0 1-.997-.955 9.602 9.602 0 0 0-.866-2.062 1.371 1.371 0 0 1 .028-1.394l1.177-1.909-1.718-1.691-1.965 1.175a1.371 1.371 0 0 1-1.365.024 9.977 9.977 0 0 0-2.102-.862 1.372 1.372 0 0 1-.959-.99L25.242 0h-2.454l-.54 2.175a1.372 1.372 0 0 1-.963.99 9.967 9.967 0 0 0-2.104.857 1.371 1.371 0 0 1-1.361-.026l-1.974-1.18-1.717 1.691L15.3 6.41a1.372 1.372 0 0 1 .025 1.397 9.603 9.603 0 0 0-.872 2.06 1.372 1.372 0 0 1-.995.95l-2.226.536v1.985h6.594a6.314 6.314 0 0 1-.05-.787c0-3.435 2.792-6.23 6.223-6.23 3.432 0 6.223 2.795 6.223 6.23 0 .266-.018.528-.05.787h6.594v-1.956l-2.216-.533ZM0 41.685v5.37c0 .52.424.945.946.945h46.108a.947.947 0 0 0 .946-.946v-5.369H33.03l-1.042 2.588a1.371 1.371 0 0 1-1.272.859H17.26a1.371 1.371 0 0 1-1.272-.859l-1.043-2.588H0Z"/><path d="M43.422 16.08H4.578a.915.915 0 0 0-.914.914v21.948H15.87a1.371 1.371 0 0 1 1.272.859l1.043 2.588H29.79l1.043-2.588a1.371 1.371 0 0 1 1.272-.859h12.231V16.994a.915.915 0 0 0-.914-.914Zm-24.25 9.835-4.985 2.499 4.985 2.499v2.63l-8.337-4.294v-1.67l8.337-4.294v2.63Zm3.973 7.77h-2.518l4.706-12.227h2.535l-4.723 12.227Zm14.02-4.42-8.337 4.276v-2.63l5.02-2.497-5.02-2.498v-2.629l8.337 4.276v1.702Z"/></g><defs><clipPath id="ea"><path d="M0 0h48v48H0z"/></clipPath></defs></svg><svg viewBox="0 0 48 48" id="loyality" xmlns="http://www.w3.org/2000/svg"><g clip-path="url(#fa)"><path d="M4.411 28.313h-3c-.777 0-1.406.629-1.406 1.406v16.875C.005 47.37.634 48 1.411 48h3a4.223 4.223 0 0 0 4.219-4.219v-11.25a4.223 4.223 0 0 0-4.219-4.218Zm43.172 2.728a2.576 2.576 0 0 0-.647-.704c-1.035-.905-2.78-.82-3.796.282l-6.385 7.368-.197.225a4.15 4.15 0 0 1-3.093 1.35H22.552a1.393 1.393 0 0 1-1.406-1.406c0-.787.619-1.406 1.406-1.406h8.578a2.82 2.82 0 0 0 2.813-2.813v-.028a2.815 2.815 0 0 0-2.813-2.784h-5.09a3.87 3.87 0 0 1-2.475-.928c-3.432-3.01-8.438-3.206-12.122-.647v17.297A32.461 32.461 0 0 0 19.993 48h12.543a9.857 9.857 0 0 0 7.875-3.938l6.75-9c.985-1.292 1.06-3.065.422-4.021Zm-9.87-28.323C36.152.965 33.99 0 31.623 0c-2.641 0-4.93 1.249-6.62 3.611-.125.174-.243.35-.357.53-.114-.18-.233-.356-.356-.53C22.6 1.25 20.31 0 17.67 0c-2.367 0-4.529.965-6.088 2.718-1.48 1.664-2.296 3.888-2.296 6.262 0 2.58 1.002 4.962 3.151 7.494 1.876 2.21 4.567 4.48 7.682 7.11 1.151.971 2.342 1.976 3.607 3.073a1.403 1.403 0 0 0 1.842 0c1.265-1.097 2.455-2.101 3.606-3.073 2.001-1.689 3.729-3.147 5.228-4.562 2.912-2.746 5.605-5.864 5.605-10.042 0-2.374-.815-4.598-2.295-6.262Z"/></g><defs><clipPath id="fa"><path d="M0 0h48v48H0z"/></clipPath></defs></svg><svg viewBox="0 0 48 40" id="pavilion" xmlns="http://www.w3.org/2000/svg"><path d="M27.113 30.443h-6.225v9.038h6.225v-9.038Zm-9.038 0h-6.224v9.038h6.224v-9.038ZM.885 9.657l1.505-.602L23.479.62c.335-.134.71-.134 1.044 0L45.61 9.055l1.506.602a1.406 1.406 0 0 1-.623 2.708v.072L24.523 3.65a1.407 1.407 0 0 0-1.045 0L1.507 12.437v-.072c-.034.002-.067.005-.1.005a1.407 1.407 0 0 1-.523-2.713Z"/><path d="m1.929 15.297 22.07-8.828 22.072 8.828c.135.054.278.087.422.098v22.68c0 .776-.63 1.406-1.406 1.406h-6.125V29.037c0-.776-.63-1.406-1.406-1.406H10.444c-.777 0-1.406.63-1.406 1.407V39.48H2.913c-.777 0-1.407-.63-1.407-1.406v-22.68a1.4 1.4 0 0 0 .423-.097Zm11.527 1.59h21.088a1.406 1.406 0 1 0 0-2.812H13.456a1.406 1.406 0 0 0 0 2.813Z"/><path d="M36.15 30.443h-6.225v9.038h6.225v-9.038Z"/></svg><svg viewBox="0 0 24 24" id="phone" xmlns="http://www.w3.org/2000/svg"><path d="M15.05 5A5 5 0 0 1 19 8.95M15.05 1A9 9 0 0 1 23 8.94m-1 7.98v3a2.001 2.001 0 0 1-2.18 2 19.79 19.79 0 0 1-8.63-3.07 19.499 19.499 0 0 1-6-6 19.79 19.79 0 0 1-3.07-8.67A2 2 0 0 1 4.11 2h3a2 2 0 0 1 2 1.72c.127.96.362 1.903.7 2.81a2 2 0 0 1-.45 2.11L8.09 9.91a16 16 0 0 0 6 6l1.27-1.27a1.999 1.999 0 0 1 2.11-.45c.907.339 1.85.573 2.81.7A2 2 0 0 1 22 16.92Z"/></svg><svg viewBox="0 0 64 71" id="video-btn" xmlns="http://www.w3.org/2000/svg"><path fill-rule="evenodd" clip-rule="evenodd" d="M59.374 28.97 11.436 1.292A7.294 7.294 0 0 0 .497 7.606v55.358a7.222 7.222 0 0 0 3.644 6.315 7.23 7.23 0 0 0 7.295 0l47.938-27.68a7.294 7.294 0 0 0 0-12.63Z"/></svg></svg>